<?xml version="1.0" standalone="no"?>
<!DOCTYPE svg PUBLIC "-//W3C//DTD SVG 1.1//EN" "http://www.w3.org/Graphics/SVG/1.1/DTD/svg11.dtd" >
<svg xmlns="http://www.w3.org/2000/svg" xmlns:xlink="http://www.w3.org/1999/xlink" version="1.1">
<metadata>
Created by FontForge 20170910 at Tue May 16 10:56:06 2000
 By Jimmy Wärting
(URW)++,Copyright 1999 by (URW)++ Design &#38; Development
</metadata>
<defs>
<font id="NimbusSansBeckerPLig" horiz-adv-x="1024" vert-adv-y="2048" >
  <font-face 
    font-family="Nimbus Sans Becker PLig"
    font-weight="400"
    font-stretch="normal"
    units-per-em="2048"
    panose-1="2 1 5 4 2 2 1 2 1 4"
    ascent="1696"
    descent="-352"
    x-height="983"
    cap-height="1365"
    bbox="-388 -512 1876 1785"
    underline-thickness="91"
    underline-position="-242"
    unicode-range="U+0020-F002"
  />
<missing-glyph horiz-adv-x="356" vert-adv-y="1549" 
d="M36 0v1365h284v-1365h-284zM284 36v1293h-212v-1293h212z" />
    <glyph glyph-name=".notdef" horiz-adv-x="356" vert-adv-y="1549" 
d="M36 0v1365h284v-1365h-284zM284 36v1293h-212v-1293h212z" />
    <glyph glyph-name="glyph1" horiz-adv-x="0" vert-adv-y="0" 
 />
    <glyph glyph-name="glyph2" horiz-adv-x="356" vert-adv-y="1549" 
 />
    <glyph glyph-name="space" unicode=" " horiz-adv-x="356" vert-adv-y="1549" 
 />
    <glyph glyph-name="exclam" unicode="!" horiz-adv-x="287" vert-adv-y="1549" 
d="M74 0v174h140v-174h-140zM97 335l-3 67l-8 195q-11 284 -12 387v381h140v-381q-1 -102 -13 -382q-8 -207 -11 -267h-93z" />
    <glyph glyph-name="quotedbl" unicode="&#x22;" horiz-adv-x="435" vert-adv-y="1549" 
d="M156 819h-98l-17 546h131zM378 819h-99l-16 546h131z" />
    <glyph glyph-name="numbersign" unicode="#" horiz-adv-x="976" vert-adv-y="1549" 
d="M885 517l-15 -98h-161l-66 -419h-107l67 419h-301l-66 -419h-106l66 419h-160l16 98h160l52 331h-160l15 98h161l66 419h106l-66 -419h300l67 419h106l-66 -419h157l-16 -98h-157l-52 -331h160zM670 848h-300l-52 -331h300z" />
    <glyph glyph-name="dollar" unicode="$" horiz-adv-x="948" vert-adv-y="1549" 
d="M19 415h128q9 -283 275 -311v564q-181 41 -244 87q-57 40 -87 110q-33 76 -33 167q0 195 139 287q79 53 225 71v181h98v-181q161 -3 267 -108q82 -86 98 -233h-124q-25 219 -241 238v-515q189 -45 260 -87q145 -85 145 -288q0 -220 -159 -324q-101 -66 -246 -76v-177h-98
v177q-190 11 -300 127q-102 113 -103 291zM520 103q118 18 179 63q99 76 99 222q0 155 -120 211q-45 21 -158 50v-546zM422 793v494q-94 -12 -148 -53q-91 -67 -91 -193q0 -133 86 -191q43 -29 153 -57z" />
    <glyph glyph-name="percent" unicode="%" horiz-adv-x="1232" vert-adv-y="1549" 
d="M289 1372q131 0 192 -113q48 -88 48 -235q0 -146 -48 -235q-61 -113 -196 -113t-196 113q-48 89 -48 233q0 350 248 350zM283 1289q-50 0 -87 -39q-57 -59 -57 -226q0 -265 146 -265t146 264q0 266 -148 266zM122 0l871 1365h118l-871 -1365h-118zM952 689
q131 0 192 -113q48 -88 48 -235q0 -146 -48 -235q-61 -113 -197 -113q-135 0 -196 113q-48 89 -48 233q0 350 249 350zM945 606q-49 0 -87 -39q-57 -59 -57 -226q0 -265 146 -265q147 0 147 264q0 266 -149 266z" />
    <glyph glyph-name="ampersand" unicode="&#x26;" horiz-adv-x="1183" vert-adv-y="1549" 
d="M1053 629q-26 -202 -99 -351l225 -278h-142l-151 178q-74 -76 -126 -111q-124 -81 -293 -81q-189 0 -302 100q-60 52 -95 134q-37 84 -37 175q0 176 131 296q64 59 191 121q-52 68 -78 112q-54 88 -54 181q0 122 95 201q88 73 206 73q119 0 196 -71q79 -73 79 -198
q0 -146 -109 -239q-24 -21 -152 -94l338 -404q51 99 54 256h123zM810 270l-387 461q-142 -76 -189 -133q-73 -87 -73 -201q0 -140 98 -227q89 -80 225 -80q200 0 326 180zM467 862q50 22 80 39q135 76 135 200q0 83 -55 130q-42 36 -105 36q-81 0 -132 -52q-45 -45 -45 -108
q0 -65 48 -144q21 -35 46 -67q27 -34 28 -34z" />
    <glyph glyph-name="quotesingle" unicode="'" horiz-adv-x="227" vert-adv-y="1549" 
d="M169 819h-111l-17 546h145z" />
    <glyph glyph-name="parenleft" unicode="(" horiz-adv-x="406" vert-adv-y="1549" 
d="M307 -246q-114 174 -171 311q-98 239 -98 502q0 439 269 812h94q-80 -119 -132 -247q-55 -132 -78 -251q-24 -126 -24 -310q0 -191 31 -331q57 -260 203 -486h-94z" />
    <glyph glyph-name="parenright" unicode=")" horiz-adv-x="405" vert-adv-y="1549" 
d="M99 1379q115 -176 171 -311q98 -239 98 -502q0 -293 -130 -575q-57 -125 -139 -237h-94q80 118 132 247q54 132 77 250q25 127 25 311q0 191 -31 331q-57 259 -203 486h94z" />
    <glyph glyph-name="asterisk" unicode="*" horiz-adv-x="668" vert-adv-y="1549" 
d="M643 1112l-241 -79l150 -200l-69 -52l-151 203l-154 -203l-71 52l156 200l-239 79l28 83l236 -83v253h90l-2 -253l237 83z" />
    <glyph glyph-name="plus" unicode="+" horiz-adv-x="976" vert-adv-y="1549" 
d="M126 737h303v307h117v-307h304v-109h-304v-307h-117v307h-303v109z" />
    <glyph glyph-name="comma" unicode="," horiz-adv-x="210" vert-adv-y="1549" 
d="M176 173v-150q-4 -156 -35 -200q-41 -66 -108 -88v82q35 16 48 41q21 39 21 110q0 10 -1 32h-68v173h143z" />
    <glyph glyph-name="hyphen" unicode="-" horiz-adv-x="437" vert-adv-y="1549" 
d="M0 433v117h437v-117h-437z" />
    <glyph glyph-name="period" unicode="." horiz-adv-x="210" vert-adv-y="1549" 
d="M33 0v171h143v-171h-143z" />
    <glyph glyph-name="slash" unicode="/" horiz-adv-x="692" vert-adv-y="1549" 
d="M-23 -246l620 1625h117l-622 -1625h-115z" />
    <glyph glyph-name="zero" unicode="0" horiz-adv-x="962" vert-adv-y="1549" 
d="M488 1379q159 0 270 -112q166 -167 166 -585q0 -298 -88 -475q-53 -107 -149 -166q-89 -55 -206 -55q-167 0 -277 111q-166 168 -166 582q0 306 88 479q113 221 362 221zM476 1263q-106 0 -185 -90q-67 -75 -96 -243q-21 -121 -21 -247q0 -236 60 -398q33 -88 111 -141
q60 -41 136 -41q111 0 191 89q66 75 95 244q21 120 21 244q0 244 -60 400q-35 89 -111 142q-60 41 -141 41z" />
    <glyph glyph-name="one" unicode="1" horiz-adv-x="541" vert-adv-y="1549" 
d="M335 0v1025h-321v82h16q108 0 182 31q105 44 136 140q11 31 15 87h97v-1365h-125z" />
    <glyph glyph-name="two" unicode="2" horiz-adv-x="919" vert-adv-y="1549" 
d="M882 116v-116h-868q3 193 76 311q53 87 160 167q57 43 183 116q131 76 178 115q82 68 114 144q25 59 25 137q0 272 -282 272q-189 0 -258 -148q-28 -59 -35 -193h-134q7 187 88 298q117 160 346 160q183 0 296 -103q115 -105 115 -280q0 -180 -121 -307
q-56 -59 -125 -104q-56 -36 -141 -86q-116 -67 -173.5 -110t-103.5 -97q-68 -81 -69 -176h729z" />
    <glyph glyph-name="three" unicode="3" horiz-adv-x="944" vert-adv-y="1549" 
d="M19 406h131q9 -113 48 -174q38 -61 109 -96q71 -33 150 -33q150 0 242 97q73 79 73 194q0 148 -104 223q-79 56 -210 56q-35 0 -93 -5v104q36 -5 71 -5q136 0 210 61q88 73 88 197q0 109 -75 174q-71 62 -192 62q-132 0 -209 -70q-78 -71 -82 -236h-128q-1 18 -1 26
q0 116 59 213q112 185 364 185q175 0 285 -97q109 -96 109 -248q0 -202 -189 -303q233 -81 233 -323q0 -174 -113 -291q-128 -131 -337 -131q-200 0 -318 115q-118 114 -121 270v35z" />
    <glyph glyph-name="four" unicode="4" horiz-adv-x="941" vert-adv-y="1549" 
d="M615 0v341h-601v109l613 915h110v-915h190v-109h-190v-341h-122zM147 450h468v714z" />
    <glyph glyph-name="five" unicode="5" horiz-adv-x="931" vert-adv-y="1549" 
d="M19 365h130q9 -95 58 -159q81 -104 230 -104q159 0 245 96q82 91 82 251q0 139 -68 223q-81 99 -244 99q-121 0 -200 -54q-38 -26 -77 -80h-111l111 728h659v-116h-568l-68 -440q142 80 285 80q195 0 305 -119q113 -121 113 -319q0 -210 -116 -334q-123 -131 -334 -131
q-230 0 -352 159q-67 87 -80 220z" />
    <glyph glyph-name="six" unicode="6" horiz-adv-x="955" vert-adv-y="1549" 
d="M903 1043h-136q-31 220 -247 220q-184 0 -269 -162q-81 -156 -81 -348q0 -20 2 -60q119 178 334 178q186 0 307 -130q111 -119 111 -304q0 -196 -114 -322q-115 -129 -315 -129q-228 0 -339 154q-78 106 -100 242q-18 114 -18 245q0 301 78 481q57 131 164 202
q104 69 241 69q131 0 233 -68q99 -66 133 -187q8 -28 16 -81zM489 756q-127 0 -210 -82q-89 -88 -89 -246q0 -149 79 -239q76 -86 218 -86q149 0 225 92q75 92 75 238q0 138 -69 223q-81 100 -229 100z" />
    <glyph glyph-name="seven" unicode="7" horiz-adv-x="900" vert-adv-y="1549" 
d="M339 0h-141q53 332 195 665q85 196 167 323q105 150 183 260h-729v117h864v-116q-218 -244 -365 -602q-155 -391 -174 -647z" />
    <glyph glyph-name="eight" unicode="8" horiz-adv-x="975" vert-adv-y="1549" 
d="M279 739q-68 40 -103 72q-83 76 -83 207q0 169 128 273q109 88 272 88q171 0 277 -91q110 -95 110 -247q0 -204 -187 -293q251 -87 251 -348q0 -194 -137 -310q-123 -104 -312 -104q-198 0 -328 118t-130 295q0 154 105 251q51 47 137 89zM489 686q-153 0 -241 -91
q-76 -78 -76 -201q0 -129 76 -204q45 -46 120 -69q58 -19 119 -19q137 0 228 81t91 216q0 147 -100 223q-83 64 -217 64zM490 1262q-123 0 -196 -68q-70 -66 -70 -171q0 -117 85 -184q70 -54 176 -54q125 0 197 76q69 73 69 175q0 95 -61 157q-69 69 -200 69z" />
    <glyph glyph-name="nine" unicode="9" horiz-adv-x="956" vert-adv-y="1549" 
d="M54 322h135q32 -220 248 -220q184 0 269 162q81 157 81 345q0 21 -2 63q-120 -178 -334 -178q-187 0 -307 130q-111 119 -111 304q0 196 114 322q115 129 315 129q228 0 339 -154q78 -106 100 -242q18 -114 18 -245q0 -301 -78 -481q-57 -131 -164 -202
q-104 -69 -241 -69q-132 0 -233 68q-100 66 -134 187q-7 28 -15 81zM465 1262q-144 0 -220 -92q-75 -92 -75 -239q0 -137 69 -222q80 -100 225 -100q132 0 214 82q89 88 89 245q0 149 -79 240q-75 86 -223 86z" />
    <glyph glyph-name="colon" unicode=":" horiz-adv-x="210" vert-adv-y="1549" 
d="M33 716v171h143v-171h-143zM33 0v171h143v-171h-143z" />
    <glyph glyph-name="semicolon" unicode=";" horiz-adv-x="210" vert-adv-y="1549" 
d="M176 173v-150q-4 -156 -35 -200q-41 -66 -108 -88v82q35 16 48 41q21 39 21 110q0 10 -1 32h-68v173h143zM33 716v171h143v-171h-143z" />
    <glyph glyph-name="less" unicode="&#x3c;" vert-adv-y="1549" 
d="M955 1151v-132l-745 -336l745 -336v-133l-887 411v116z" />
    <glyph glyph-name="equal" unicode="=" horiz-adv-x="976" vert-adv-y="1549" 
d="M134 882h709v-109h-709v109zM134 593h709v-109h-709v109z" />
    <glyph glyph-name="greater" unicode="&#x3e;" vert-adv-y="1549" 
d="M69 1151l887 -410v-116l-887 -411v133l745 336l-745 336v132z" />
    <glyph glyph-name="question" unicode="?" horiz-adv-x="883" vert-adv-y="1549" 
d="M359 0v170h137v-170h-137zM370 337q-1 122 26 202q22 61 64 111q28 33 89 85q97 83 128 133q40 67 40 150q0 113 -64 180q-68 71 -203 71q-167 0 -242 -119q-46 -73 -46 -209h-129q11 198 91 299q109 139 329 139q186 0 290 -100q104 -99 104 -257q0 -134 -92 -238
q-42 -48 -163 -155q-88 -77 -101 -169q-4 -41 -6 -123h-115z" />
    <glyph glyph-name="at" unicode="@" horiz-adv-x="1445" vert-adv-y="1549" 
d="M991 1011h100l-84 -436q-13 -66 -13 -101q0 -39 21 -66q22 -28 59 -28q73 0 134 78q104 131 104 321q0 236 -165 382q-157 137 -390 137q-254 0 -431 -173q-185 -180 -185 -454q0 -258 163 -429q168 -176 467 -176q233 0 440 100l29 -91q-214 -101 -473 -101
q-238 0 -393 92q-170 100 -260 283q-73 149 -73 325q0 211 105 383q103 169 283 257q154 76 326 76q176 0 329 -79q164 -84 249 -242q71 -132 71 -287q0 -169 -80 -306q-105 -181 -256 -181q-78 0 -122 60q-22 31 -26 80q-95 -147 -256 -147q-129 0 -211 98q-77 92 -77 233
q0 173 110 301q100 116 249 116q169 0 229 -161zM742 931q-63 0 -124 -41q-67 -46 -102 -132q-27 -68 -27 -137q0 -94 46 -158q54 -74 150 -74q119 0 188 120q53 92 53 218q0 89 -45 144q-51 60 -139 60z" />
    <glyph glyph-name="A" unicode="A" horiz-adv-x="1226" vert-adv-y="1549" 
d="M5 0l538 1365h141l535 -1365h-142l-164 433h-604l-162 -433h-142zM352 540h523l-264 697z" />
    <glyph glyph-name="B" unicode="B" horiz-adv-x="1116" vert-adv-y="1549" 
d="M61 0v1365h523q101 0 147 -5q148 -17 225 -110q76 -92 76 -224q0 -122 -64 -205q-41 -52 -131 -98q108 -34 163 -86q95 -89 95 -245q0 -154 -85 -259q-86 -107 -257 -127q-50 -6 -150 -6h-542zM199 114h403q153 0 222 28q142 57 142 238q0 206 -171 256q-59 18 -194 18
h-402v-540zM199 761h365q140 0 196 21q67 25 105 89q37 62 37 139q0 94 -50 161q-47 65 -170 76q-38 3 -123 3h-360v-489z" />
    <glyph glyph-name="C" unicode="C" horiz-adv-x="1232" vert-adv-y="1549" 
d="M1215 485q-23 -160 -92 -267q-161 -246 -480 -246q-206 0 -354 105q-139 99 -205 286q-51 147 -51 329q0 265 125 449q169 251 504 251q430 0 532 -416h-132q-36 112 -92 174q-114 124 -316 124q-184 0 -305 -104q-105 -91 -151 -264q-29 -110 -29 -232q0 -257 122 -419
q58 -77 151 -121q95 -46 204 -46q239 0 368 199q55 86 69 198h132z" />
    <glyph glyph-name="D" unicode="D" horiz-adv-x="1179" vert-adv-y="1549" 
d="M61 0v1365h427q134 0 200 -6q149 -14 247 -96q211 -177 211 -566q0 -274 -97 -442q-122 -209 -346 -245q-66 -10 -182 -10h-460zM199 117h312q109 0 165 11q166 31 255 201q78 148 78 374q0 215 -76 351q-91 163 -269 187q-52 7 -170 7h-295v-1131z" />
    <glyph glyph-name="E" unicode="E" horiz-adv-x="1021" vert-adv-y="1549" 
d="M62 0v1365h917v-117h-780v-491h717v-110h-717v-532h798v-115h-935z" />
    <glyph glyph-name="F" unicode="F" horiz-adv-x="947" vert-adv-y="1549" 
d="M62 0v1365h866v-117h-729v-494h634v-109h-634v-645h-137z" />
    <glyph glyph-name="G" unicode="G" horiz-adv-x="1287" vert-adv-y="1549" 
d="M653 702h576v-702h-105v227q-86 -112 -161 -163q-134 -91 -321 -91q-202 0 -352 111q-257 192 -257 593q0 294 142 485q94 128 245 188q107 42 237 42q189 0 331 -86q189 -113 228 -345h-131q-26 111 -81 175q-121 139 -344 139q-254 0 -383 -188q-107 -156 -107 -401
q0 -241 103 -396q68 -104 178 -157q92 -45 204 -45q216 0 345 155q106 129 110 308v41h-457v110z" />
    <glyph glyph-name="H" unicode="H" horiz-adv-x="1146" vert-adv-y="1549" 
d="M62 0v1365h136v-586h750v586h137v-1365h-137v668h-750v-668h-136z" />
    <glyph glyph-name="I" unicode="I" horiz-adv-x="262" vert-adv-y="1549" 
d="M62 0v1365h139v-1365h-139z" />
    <glyph glyph-name="J" unicode="J" horiz-adv-x="834" vert-adv-y="1549" 
d="M16 440h130q-1 -175 33 -237q61 -113 219 -113q173 0 218 131q18 53 18 205v939h136v-961q0 -181 -53 -273q-91 -158 -323 -158q-380 0 -380 390q0 32 2 77z" />
    <glyph glyph-name="K" unicode="K" horiz-adv-x="1106" vert-adv-y="1549" 
d="M62 0v1365h135v-705l741 705h183l-605 -565l614 -800h-164l-541 711l-228 -211v-500h-135z" />
    <glyph glyph-name="L" unicode="L" horiz-adv-x="928" vert-adv-y="1549" 
d="M62 0v1365h137v-1249h711v-116h-848z" />
    <glyph glyph-name="M" unicode="M" horiz-adv-x="1396" vert-adv-y="1549" 
d="M62 0v1365h167l473 -1206l467 1206h166v-1365h-124v1147l-443 -1147h-128l-458 1147v-1147h-120z" />
    <glyph glyph-name="N" unicode="N" horiz-adv-x="1156" vert-adv-y="1549" 
d="M62 0v1365h137l775 -1167v1167h121v-1365h-136l-775 1169v-1169h-122z" />
    <glyph glyph-name="O" unicode="O" horiz-adv-x="1328" vert-adv-y="1549" 
d="M675 1392q314 0 479 -234q141 -200 141 -489q0 -308 -160 -495q-173 -202 -471 -202t-471 202q-160 187 -160 494q0 293 141 490q88 123 203 177q123 57 298 57zM656 1276q-259 0 -384 -200q-101 -161 -101 -399q0 -263 124 -421q132 -168 369 -168t369 168
q124 158 124 420q0 242 -101 400q-128 200 -400 200z" />
    <glyph glyph-name="P" unicode="P" horiz-adv-x="1036" vert-adv-y="1549" 
d="M62 0v1365h490q104 0 148 -5q176 -20 254 -139q64 -99 64 -239q0 -151 -76 -250q-87 -113 -278 -130q-53 -5 -157 -5h-309v-597h-136zM198 715h307q165 0 227 21q149 51 149 248q0 188 -135 239q-63 23 -189 23h-359v-531z" />
    <glyph glyph-name="Q" unicode="Q" horiz-adv-x="1330" vert-adv-y="1549" 
d="M1091 127l177 -134l-70 -88l-195 158q-152 -91 -345 -91q-310 0 -483 224q-142 183 -142 469q0 315 166 524q161 203 461 203q221 0 357 -99q154 -112 230 -315q51 -138 51 -291q0 -201 -66 -353q-42 -97 -141 -207zM993 208q72 79 108 160q57 130 57 311q0 259 -123 424
q-127 172 -372 172q-249 0 -372 -171q-119 -165 -119 -427q0 -238 106 -397q64 -96 169 -146q98 -47 215 -47q139 0 233 59l-135 107l67 84z" />
    <glyph glyph-name="R" unicode="R" horiz-adv-x="1110" vert-adv-y="1549" 
d="M62 0v1365h554q201 0 292 -51q90 -51 133 -152q31 -74 31 -165q0 -232 -212 -328q92 -49 125 -110q23 -43 31 -108q6 -54 13 -173q11 -178 24 -208q11 -29 53 -70h-164q-16 45 -22 82q-5 26 -12 136q-13 181 -38 262q-30 90 -102 116q-50 18 -189 18h-382v-614h-135z
M197 726h366q145 0 212 20q78 24 118 90q42 68 42 162q0 196 -169 237q-54 13 -198 13h-371v-522z" />
    <glyph glyph-name="S" unicode="S" horiz-adv-x="1058" vert-adv-y="1549" 
d="M19 453h132q11 -158 79 -241q100 -121 314 -121q156 0 254 69q104 74 104 213q0 123 -94 179q-56 34 -123 52q-95 25 -213 49q-194 40 -268 82q-71 42 -109 112q-41 76 -41 170q0 122 70 216q119 160 402 160t405 -164q64 -87 80 -240h-137q-2 59 -11 90q-25 92 -123 150
q-81 47 -215 47q-156 0 -247 -70q-89 -70 -89 -188q0 -97 64 -152q64 -56 268 -95q205 -39 283 -68q231 -90 231 -314q0 -138 -85 -246q-133 -170 -409 -170q-306 0 -440 191q-79 111 -82 289z" />
    <glyph glyph-name="T" unicode="T" horiz-adv-x="1049" vert-adv-y="1549" 
d="M458 0v1248h-444v117h1021v-117h-440v-1248h-137z" />
    <glyph glyph-name="U" unicode="U" horiz-adv-x="1121" vert-adv-y="1549" 
d="M57 1365h137v-874q0 -91 6 -132q19 -138 126 -209q93 -61 235 -61q149 0 243 67q102 72 119 224q4 40 4 125v860h138v-870q0 -208 -73 -322q-66 -102 -186 -153q-110 -47 -249 -47q-190 0 -320 81q-147 92 -172 284q-8 59 -8 147v880z" />
    <glyph glyph-name="V" unicode="V" horiz-adv-x="1113" vert-adv-y="1549" 
d="M481 0l-476 1365h139l407 -1201l424 1201h133l-495 -1365h-132z" />
    <glyph glyph-name="W" unicode="W" horiz-adv-x="1653" vert-adv-y="1549" 
d="M358 0l-353 1365h142l288 -1173l314 1173h161l308 -1193l296 1193h134l-358 -1365h-152l-311 1169l-322 -1169h-147z" />
    <glyph glyph-name="X" unicode="X" horiz-adv-x="1092" vert-adv-y="1549" 
d="M5 0l464 689l-456 676h162l372 -562l379 562h150l-454 -676l466 -689h-162l-379 574l-382 -574h-160z" />
    <glyph glyph-name="Y" unicode="Y" horiz-adv-x="1165" vert-adv-y="1549" 
d="M518 0v600l-513 765h168l413 -637l420 637h154l-505 -765v-600h-137z" />
    <glyph glyph-name="Z" unicode="Z" horiz-adv-x="1085" vert-adv-y="1549" 
d="M1066 0h-1052v82l880 1166h-806v117h960v-115l-853 -1132h871v-118z" />
    <glyph glyph-name="bracketleft" unicode="[" horiz-adv-x="394" vert-adv-y="1549" 
d="M62 -232v1597h318v-101h-203v-1395h203v-101h-318z" />
    <glyph glyph-name="backslash" unicode="\" horiz-adv-x="692" vert-adv-y="1549" 
d="M714 -246h-114l-623 1625h118z" />
    <glyph glyph-name="bracketright" unicode="]" horiz-adv-x="394" vert-adv-y="1549" 
d="M332 1365v-1597h-318v101h203v1395h-203v101h318z" />
    <glyph glyph-name="asciicircum" unicode="^" vert-adv-y="1549" 
d="M199 775h-128l365 593h153l365 -593h-129l-314 501z" />
    <glyph glyph-name="underscore" unicode="_" vert-adv-y="1549" 
d="M0 -152h1024v-91h-1024v91z" />
    <glyph glyph-name="grave" unicode="`" vert-adv-y="1549" 
d="M568 1092h-99l-205 253h164z" />
    <glyph glyph-name="a" unicode="a" horiz-adv-x="945" vert-adv-y="1549" 
d="M933 84v-84q-55 -19 -92 -19q-90 0 -121 55q-17 31 -23 100q-60 -66 -103 -94q-103 -69 -254 -69q-156 0 -241 84q-73 73 -73 197q0 125 73 201q50 51 112 71q55 17 135 29l244 36q83 12 95 28q17 25 17 94q0 73 -29 115q-52 78 -222 78q-153 0 -211 -79
q-34 -46 -42 -137h-131q9 139 90 221q99 99 292 99q172 0 277 -73q69 -48 85 -128q10 -46 10 -146v-492q0 -44 7 -63q12 -33 51 -33q19 0 54 9zM697 509l-336 -53q-121 -19 -168 -69q-43 -46 -43 -128q0 -81 53 -130q56 -52 156 -52q108 0 192 48q114 66 135 172
q11 53 11 133v79z" />
    <glyph glyph-name="b" unicode="b" horiz-adv-x="971" vert-adv-y="1549" 
d="M61 0v1365h123v-527q60 73 111 108q95 65 217 65q162 0 272 -99q154 -137 154 -416q0 -218 -105 -359q-121 -164 -330 -164q-128 0 -227 74q-41 30 -92 89v-136h-123zM505 907q-95 0 -177 -57q-94 -64 -125 -179q-20 -72 -20 -179q0 -176 62 -277q42 -68 111 -105
q63 -35 138 -35q112 0 197 74q124 110 124 352q0 159 -52 258q-77 148 -258 148z" />
    <glyph glyph-name="c" unicode="c" horiz-adv-x="900" vert-adv-y="1549" 
d="M758 339h120q-39 -175 -131 -261q-114 -106 -280 -106q-197 0 -314 136q-121 140 -121 372q0 166 66 297q75 146 218 202q84 32 175 32q191 0 299 -124q72 -83 91 -214h-123q-9 81 -42 128q-72 102 -224 102q-117 0 -202 -66q-134 -105 -134 -350q0 -153 63 -260
q86 -147 264 -147q158 0 234 127q32 52 41 132z" />
    <glyph glyph-name="d" unicode="d" horiz-adv-x="972" vert-adv-y="1549" 
d="M910 0h-123v136q-51 -59 -92 -89q-99 -75 -227 -75q-209 0 -330 164q-105 141 -105 359q0 202 84 334q115 181 342 181q123 0 217 -64q51 -35 111 -108v527h123v-1365zM456 906q-117 0 -197 -79q-103 -101 -103 -326q0 -181 73 -293q36 -55 93 -91q71 -43 155 -43
q108 0 189 70q122 105 122 344q0 192 -73 292q-92 126 -259 126z" />
    <glyph glyph-name="e" unicode="e" horiz-adv-x="924" vert-adv-y="1549" 
d="M766 308h124q-42 -111 -87 -174q-55 -76 -142 -118q-89 -43 -195 -43q-217 0 -337 158q-96 128 -96 344t99 361q120 175 342 175q195 0 306 -131q87 -103 103 -296q3 -33 7 -111h-739q0 -144 46 -235q82 -162 273 -162q155 0 242 111q36 46 54 121zM766 577
q-5 109 -40 180q-75 152 -249 152q-166 0 -253 -131q-50 -76 -68 -201h610z" />
    <glyph glyph-name="f" unicode="f" horiz-adv-x="447" vert-adv-y="1549" 
d="M281 983h166v-102h-166v-881h-123v881h-144v102h144v180q0 99 42 152q53 65 153 65q35 0 94 -6v-106q-37 6 -57 6q-65 0 -90 -28q-19 -22 -19 -114v-149z" />
    <glyph glyph-name="g" unicode="g" horiz-adv-x="969" vert-adv-y="1549" 
d="M908 983v-806q0 -100 -7 -168q-12 -126 -64 -198q-112 -156 -372 -156q-196 0 -303 96q-65 58 -81 164h125q5 -61 43 -96q32 -30 96 -50q62 -19 131 -19q129 0 212 65q63 50 81 127q8 33 16 225q-61 -71 -102 -99q-91 -65 -219 -65q-200 0 -318 140q-113 133 -113 362
q0 198 97 335q120 170 334 170q198 0 321 -167v140h123zM473 907q-159 0 -244 -126q-75 -110 -75 -283q0 -175 79 -279q86 -115 239 -115q147 0 234 105t87 295q0 194 -79 296q-81 107 -241 107z" />
    <glyph glyph-name="h" unicode="h" horiz-adv-x="895" vert-adv-y="1549" 
d="M62 0v1365h123v-501q67 69 106 94q82 53 210 53q253 0 317 -188q21 -61 21 -215v-608h-123v628q0 124 -26 174q-54 106 -207 106q-120 0 -200 -71q-77 -69 -90 -184q-8 -69 -8 -107v-546h-123z" />
    <glyph glyph-name="i" unicode="i" horiz-adv-x="246" vert-adv-y="1549" 
d="M62 0v983h123v-983h-123zM62 1199v166h123v-166h-123z" />
    <glyph glyph-name="j" unicode="j" horiz-adv-x="246" vert-adv-y="1549" 
d="M61 983h123v-1015q0 -109 -9 -154q-20 -105 -89 -136q-48 -23 -119 -23q-14 0 -45 2v107q29 -5 42 -5q66 0 86 63q11 33 11 152v1009zM61 1197v168h123v-168h-123z" />
    <glyph glyph-name="k" unicode="k" horiz-adv-x="874" vert-adv-y="1549" 
d="M62 0v1365h123v-841l482 459h170l-391 -360l424 -623h-150l-359 544l-176 -161v-383h-123z" />
    <glyph glyph-name="l" unicode="l" horiz-adv-x="246" vert-adv-y="1549" 
d="M62 0v1365h123v-1365h-123z" />
    <glyph glyph-name="m" unicode="m" horiz-adv-x="1425" vert-adv-y="1549" 
d="M62 0v983h123v-107q116 135 279 135q198 0 285 -169q44 71 94 106q89 62 219 62q127 0 209 -63q84 -66 94 -203q3 -34 3 -97v-647h-123v644q0 101 -17 150q-38 113 -189 113q-116 0 -185 -71q-75 -77 -75 -265v-571h-123v599q0 144 -17 194q-39 115 -182 115
q-132 0 -206 -89q-54 -64 -63 -199q-3 -35 -3 -98v-522h-123z" />
    <glyph glyph-name="n" unicode="n" horiz-adv-x="895" vert-adv-y="1549" 
d="M62 0v983h123v-119q59 66 105 94q85 53 211 53q253 0 317 -188q21 -61 21 -188v-635h-123v628q0 124 -25 174q-55 106 -209 106q-122 0 -201 -71q-75 -68 -91 -183q-5 -35 -5 -108v-546h-123z" />
    <glyph glyph-name="o" unicode="o" horiz-adv-x="973" vert-adv-y="1549" 
d="M494 1010q222 0 352 -186q94 -135 94 -346t-101 -342q-126 -164 -353 -164q-226 0 -352 164q-101 131 -101 341q0 213 94 347q131 186 367 186zM482 906q-111 0 -200 -75q-126 -107 -126 -352q0 -171 71 -275q87 -128 260 -128q172 0 259 128q71 104 71 273
q0 175 -66 284q-41 67 -111 106q-72 39 -158 39z" />
    <glyph glyph-name="p" unicode="p" horiz-adv-x="970" vert-adv-y="1549" 
d="M185 -348h-123v1331h123v-140q52 69 98 101q94 66 228 66q203 0 316 -155q110 -152 110 -357q0 -137 -52 -264q-107 -262 -394 -262q-121 0 -206 54q-50 32 -100 99v-473zM496 907q-108 0 -192 -69q-78 -63 -106 -166q-18 -69 -18 -171q0 -194 64 -298q36 -59 99 -93
q67 -36 148 -36q158 0 244 124q79 114 79 293q0 163 -59 268q-84 148 -259 148z" />
    <glyph glyph-name="q" unicode="q" horiz-adv-x="970" vert-adv-y="1549" 
d="M785 -348v473q-50 -66 -100 -98q-84 -54 -205 -54q-148 0 -254 74q-103 71 -155 226q-38 111 -38 226q0 204 110 356q113 155 316 155q134 0 228 -66q46 -32 98 -101v140h123v-1331h-123zM463 907q-166 0 -248 -148q-59 -107 -59 -266q0 -181 79 -294q86 -124 244 -124
q113 0 193 67q118 98 118 358q0 179 -64 274q-91 133 -263 133z" />
    <glyph glyph-name="r" unicode="r" horiz-adv-x="523" vert-adv-y="1549" 
d="M62 0v983h123v-164q38 66 75 102q77 77 201 77q21 0 48 -4v-120q-28 3 -42 3q-99 0 -177 -77q-78 -75 -98 -204q-7 -45 -7 -134v-462h-123z" />
    <glyph glyph-name="s" unicode="s" horiz-adv-x="814" vert-adv-y="1549" 
d="M19 310h123q17 -230 284 -230q111 0 172 48q70 55 70 146q0 54 -33 87q-36 36 -151 66q-33 9 -178 40q-140 31 -200 94q-61 64 -61 166q0 145 111 219q97 65 248 65q226 0 317 -140q40 -62 52 -168h-121q-13 70 -34 104q-56 92 -222 92q-106 0 -167 -43q-61 -42 -61 -116
q0 -89 77 -125q45 -21 207 -59q126 -29 169 -45q170 -65 170 -229q0 -155 -122 -240q-98 -69 -258 -69q-190 0 -292 93q-100 91 -100 244z" />
    <glyph glyph-name="t" unicode="t" horiz-adv-x="448" vert-adv-y="1549" 
d="M434 102v-80q-61 -28 -124 -28q-120 0 -146 92q-8 27 -8 130v665h-142v102h142v291h123v-291h155v-102h-155v-692q0 -59 11 -76q18 -30 65 -30q30 0 79 19z" />
    <glyph glyph-name="u" unicode="u" horiz-adv-x="895" vert-adv-y="1549" 
d="M834 983v-983h-123v119q-58 -66 -105 -94q-85 -53 -211 -53q-253 0 -317 188q-21 61 -21 215v608h123v-615q0 -68 2 -93q9 -110 81 -159q61 -41 151 -41q154 0 237 111q60 81 60 224v573h123z" />
    <glyph glyph-name="v" unicode="v" horiz-adv-x="875" vert-adv-y="1549" 
d="M370 0l-365 983h135l297 -828l302 828h131l-375 -983h-125z" />
    <glyph glyph-name="w" unicode="w" horiz-adv-x="1320" vert-adv-y="1549" 
d="M309 0l-304 983h130l238 -796l224 796h127l214 -796l249 796h129l-315 -983h-124l-218 785l-227 -785h-123z" />
    <glyph glyph-name="x" unicode="x" horiz-adv-x="899" vert-adv-y="1549" 
d="M5 0l375 513l-340 470h146l261 -380l268 380h147l-347 -470l379 -513h-147l-300 420l-296 -420h-146z" />
    <glyph glyph-name="y" unicode="y" horiz-adv-x="883" vert-adv-y="1549" 
d="M113 -235q51 -15 82 -15q96 0 147 136l46 125l-383 972h131l311 -817l305 817h126l-447 -1150q-39 -100 -96 -143q-57 -42 -147 -42q-35 0 -75 10v107z" />
    <glyph glyph-name="z" unicode="z" horiz-adv-x="811" vert-adv-y="1549" 
d="M796 0h-782v89l603 783h-559v111h714v-85l-600 -787h624v-111z" />
    <glyph glyph-name="braceleft" unicode="{" horiz-adv-x="433" vert-adv-y="1549" 
d="M130 565q59 -34 85 -101q18 -46 18 -137v-261q3 -98 13 -115q21 -49 57 -63q38 -16 76 -16h26v-104h-28q-145 -2 -199 70q-41 52 -52 130q-6 48 -6 104v254q0 103 -31 145q-29 37 -75 50v96q47 13 77 54q28 37 29 133v283q-1 148 61 213q61 68 196 65h28v-104h-26
q-43 0 -83 -19q-37 -16 -54 -70q-8 -25 -9 -97v-277q-1 -107 -27 -157q-23 -45 -76 -76z" />
    <glyph glyph-name="bar" unicode="|" vert-adv-y="1549" 
d="M446 1365h132v-1706h-132v1706z" />
    <glyph glyph-name="braceright" unicode="}" horiz-adv-x="433" vert-adv-y="1549" 
d="M304 568q-59 34 -85 101q-18 46 -18 137v260q-3 99 -13 116q-21 49 -57 63q-38 16 -77 16h-26v104h29q146 2 199 -70q41 -52 52 -131q6 -47 6 -103v-254q0 -103 31 -145q28 -37 74 -50v-96q-47 -13 -76 -54q-28 -37 -29 -133v-283q1 -148 -61 -212q-61 -68 -197 -66h-28
v104h26q44 0 83 19q38 16 55 70q8 24 9 97v277q1 107 27 157q22 44 76 76z" />
    <glyph glyph-name="asciitilde" unicode="~" horiz-adv-x="1365" vert-adv-y="1549" 
d="M268 1199l-74 57q37 74 80 125q80 95 191 95q79 0 237 -81q91 -46 123 -57q44 -15 80 -15q104 0 194 158l74 -57q-41 -81 -82 -129q-80 -93 -189 -93q-53 0 -128 32q-40 16 -112 53q-81 41 -113 52q-49 17 -90 17q-71 0 -125 -61q-31 -35 -66 -96z" />
    <glyph glyph-name="Adieresis" unicode="&#xc4;" horiz-adv-x="1226" vert-adv-y="1549" 
d="M5 0l538 1365h141l535 -1365h-142l-164 433h-604l-162 -433h-142zM352 540h523l-264 697zM355 1479v174h139v-174h-139zM733 1479v174h139v-174h-139z" />
    <glyph glyph-name="Aring" unicode="&#xc5;" horiz-adv-x="1226" vert-adv-y="1549" 
d="M5 0l538 1365h141l535 -1365h-142l-164 433h-604l-162 -433h-142zM352 540h523l-264 697zM615 1785q68 0 117 -48q52 -50 52 -123q0 -71 -50 -121t-121 -50t-121 50t-50 121q0 74 52 123q50 48 121 48zM612 1710q-38 0 -66 -27q-29 -28 -29 -69q0 -39 28 -68
q29 -28 68 -28q40 0 68 28q28 29 28 68q0 41 -29 69q-28 27 -68 27z" />
    <glyph glyph-name="Ccedilla" unicode="&#xc7;" horiz-adv-x="1232" vert-adv-y="1549" 
d="M645 -27l-46 -73q31 7 52 7q58 0 99 -32q41 -33 41 -85q0 -68 -60 -111q-48 -34 -120 -34q-77 0 -170 37l25 56q70 -30 132 -30q47 0 77 27q20 18 20 46q0 27 -21 46q-26 23 -64 23q-30 0 -79 -16l-29 28l76 114q-198 20 -328 133q-110 96 -166 255q-51 147 -51 328
q0 265 125 450q168 250 504 250q430 0 532 -416h-132q-36 112 -92 174q-114 124 -316 124q-184 0 -305 -104q-105 -91 -151 -264q-29 -110 -29 -232q0 -257 122 -419q58 -77 151 -121q95 -46 204 -46q239 0 368 199q55 86 69 198h132q-32 -253 -210 -396
q-147 -116 -360 -116z" />
    <glyph glyph-name="Eacute" unicode="&#xc9;" horiz-adv-x="1021" vert-adv-y="1549" 
d="M62 0v1365h917v-117h-780v-491h717v-110h-717v-532h798v-115h-935zM386 1454l140 252h164l-206 -252h-98z" />
    <glyph glyph-name="Ntilde" unicode="&#xd1;" horiz-adv-x="1156" vert-adv-y="1549" 
d="M62 0v1365h137l775 -1167v1167h121v-1365h-136l-775 1169v-1169h-122zM880 1649q-35 -185 -165 -185q-43 0 -101 23q-17 7 -101 48q-36 17 -73 17q-67 0 -92 -96h-72q15 87 56 133q48 53 118 53q54 0 128 -37q59 -29 79 -38q27 -12 57 -12q68 0 92 94h74z" />
    <glyph glyph-name="Odieresis" unicode="&#xd6;" horiz-adv-x="1328" vert-adv-y="1549" 
d="M675 1392q314 0 479 -234q141 -200 141 -489q0 -308 -160 -495q-173 -202 -471 -202t-471 202q-160 187 -160 494q0 293 141 490q88 123 203 177q123 57 298 57zM656 1276q-259 0 -384 -200q-101 -161 -101 -399q0 -263 124 -421q132 -168 369 -168t369 168
q124 158 124 420q0 242 -101 400q-128 200 -400 200zM406 1479v174h139v-174h-139zM784 1479v174h139v-174h-139z" />
    <glyph glyph-name="Udieresis" unicode="&#xdc;" horiz-adv-x="1121" vert-adv-y="1549" 
d="M57 1365h137v-874q0 -91 6 -132q19 -138 126 -209q93 -61 235 -61q149 0 243 67q102 72 119 224q4 40 4 125v860h138v-870q0 -208 -73 -322q-66 -102 -186 -153q-110 -47 -249 -47q-190 0 -320 81q-147 92 -172 284q-8 59 -8 147v880zM302 1479v174h139v-174h-139z
M680 1479v174h139v-174h-139z" />
    <glyph glyph-name="aacute" unicode="&#xe1;" horiz-adv-x="945" vert-adv-y="1549" 
d="M933 84v-84q-55 -19 -92 -19q-90 0 -121 55q-17 31 -23 100q-60 -66 -103 -94q-103 -69 -254 -69q-156 0 -241 84q-73 73 -73 197q0 125 73 201q50 51 112 71q55 17 135 29l244 36q83 12 95 28q17 25 17 94q0 73 -29 115q-52 78 -222 78q-153 0 -211 -79
q-34 -46 -42 -137h-131q9 139 90 221q99 99 292 99q172 0 277 -73q69 -48 85 -128q10 -46 10 -146v-492q0 -44 7 -63q12 -33 51 -33q19 0 54 9zM697 509l-336 -53q-121 -19 -168 -69q-43 -46 -43 -128q0 -81 53 -130q56 -52 156 -52q108 0 192 48q114 66 135 172
q11 53 11 133v79zM403 1092l140 253h164l-206 -253h-98z" />
    <glyph glyph-name="agrave" unicode="&#xe0;" horiz-adv-x="945" vert-adv-y="1549" 
d="M933 84v-84q-55 -19 -92 -19q-90 0 -121 55q-17 31 -23 100q-60 -66 -103 -94q-103 -69 -254 -69q-156 0 -241 84q-73 73 -73 197q0 125 73 201q50 51 112 71q55 17 135 29l244 36q83 12 95 28q17 25 17 94q0 73 -29 115q-52 78 -222 78q-153 0 -211 -79
q-34 -46 -42 -137h-131q9 139 90 221q99 99 292 99q172 0 277 -73q69 -48 85 -128q10 -46 10 -146v-492q0 -44 7 -63q12 -33 51 -33q19 0 54 9zM697 509l-336 -53q-121 -19 -168 -69q-43 -46 -43 -128q0 -81 53 -130q56 -52 156 -52q108 0 192 48q114 66 135 172
q11 53 11 133v79zM515 1092h-99l-205 253h164z" />
    <glyph glyph-name="acircumflex" unicode="&#xe2;" horiz-adv-x="945" vert-adv-y="1549" 
d="M933 84v-84q-55 -19 -92 -19q-90 0 -121 55q-17 31 -23 100q-60 -66 -103 -94q-103 -69 -254 -69q-156 0 -241 84q-73 73 -73 197q0 125 73 201q50 51 112 71q55 17 135 29l244 36q83 12 95 28q17 25 17 94q0 73 -29 115q-52 78 -222 78q-153 0 -211 -79
q-34 -46 -42 -137h-131q9 139 90 221q99 99 292 99q172 0 277 -73q69 -48 85 -128q10 -46 10 -146v-492q0 -44 7 -63q12 -33 51 -33q19 0 54 9zM697 509l-336 -53q-121 -19 -168 -69q-43 -46 -43 -128q0 -81 53 -130q56 -52 156 -52q108 0 192 48q114 66 135 172
q11 53 11 133v79zM185 1094l203 249h144l201 -249h-131l-139 175l-149 -175h-129z" />
    <glyph glyph-name="adieresis" unicode="&#xe4;" horiz-adv-x="945" vert-adv-y="1549" 
d="M933 84v-84q-55 -19 -92 -19q-90 0 -121 55q-17 31 -23 100q-60 -66 -103 -94q-103 -69 -254 -69q-156 0 -241 84q-73 73 -73 197q0 125 73 201q50 51 112 71q55 17 135 29l244 36q83 12 95 28q17 25 17 94q0 73 -29 115q-52 78 -222 78q-153 0 -211 -79
q-34 -46 -42 -137h-131q9 139 90 221q99 99 292 99q172 0 277 -73q69 -48 85 -128q10 -46 10 -146v-492q0 -44 7 -63q12 -33 51 -33q19 0 54 9zM697 509l-336 -53q-121 -19 -168 -69q-43 -46 -43 -128q0 -81 53 -130q56 -52 156 -52q108 0 192 48q114 66 135 172
q11 53 11 133v79zM221 1128v174h139v-174h-139zM544 1128v174h139v-174h-139z" />
    <glyph glyph-name="atilde" unicode="&#xe3;" horiz-adv-x="945" vert-adv-y="1549" 
d="M933 84v-84q-55 -19 -92 -19q-90 0 -121 55q-17 31 -23 100q-60 -66 -103 -94q-103 -69 -254 -69q-156 0 -241 84q-73 73 -73 197q0 125 73 201q50 51 112 71q55 17 135 29l244 36q83 12 95 28q17 25 17 94q0 73 -29 115q-52 78 -222 78q-153 0 -211 -79
q-34 -46 -42 -137h-131q9 139 90 221q99 99 292 99q172 0 277 -73q69 -48 85 -128q10 -46 10 -146v-492q0 -44 7 -63q12 -33 51 -33q19 0 54 9zM697 509l-336 -53q-121 -19 -168 -69q-43 -46 -43 -128q0 -81 53 -130q56 -52 156 -52q108 0 192 48q114 66 135 172
q11 53 11 133v79zM761 1316q-35 -185 -165 -185q-43 0 -101 23q-17 7 -101 48q-36 17 -73 17q-67 0 -92 -96h-72q15 87 56 133q48 53 118 53q54 0 128 -37q59 -29 79 -38q27 -12 57 -12q68 0 92 94h74z" />
    <glyph glyph-name="aring" unicode="&#xe5;" horiz-adv-x="945" vert-adv-y="1549" 
d="M933 84v-84q-55 -19 -92 -19q-90 0 -121 55q-17 31 -23 100q-60 -66 -103 -94q-103 -69 -254 -69q-156 0 -241 84q-73 73 -73 197q0 125 73 201q50 51 112 71q55 17 135 29l244 36q83 12 95 28q17 25 17 94q0 73 -29 115q-52 78 -222 78q-153 0 -211 -79
q-34 -46 -42 -137h-131q9 139 90 221q99 99 292 99q172 0 277 -73q69 -48 85 -128q10 -46 10 -146v-492q0 -44 7 -63q12 -33 51 -33q19 0 54 9zM697 509l-336 -53q-121 -19 -168 -69q-43 -46 -43 -128q0 -81 53 -130q56 -52 156 -52q108 0 192 48q114 66 135 172
q11 53 11 133v79zM461 1416q68 0 117 -48q52 -50 52 -122q0 -71 -50 -121t-121 -50t-121 50t-50 120q0 74 52 123q50 48 121 48zM458 1342q-38 0 -66 -27q-29 -28 -29 -69q0 -39 28 -67q29 -28 68 -28q40 0 68 28t28 67q0 42 -29 69q-28 27 -68 27z" />
    <glyph glyph-name="ccedilla" unicode="&#xe7;" horiz-adv-x="900" vert-adv-y="1549" 
d="M477 -27l-44 -71q30 7 51 7q56 0 96 -32t40 -83q0 -66 -59 -108q-46 -34 -118 -34t-163 36l24 55q68 -30 128 -30q46 0 74 26q20 18 20 46q0 27 -20 45q-25 23 -62 23q-31 0 -77 -16l-28 28l74 111q-167 25 -260 132q-121 140 -121 372q0 166 67 297q74 147 217 202
q84 32 175 32q191 0 299 -124q72 -83 91 -214h-123q-9 81 -42 128q-72 102 -224 102q-117 0 -202 -66q-134 -105 -134 -350q0 -153 63 -260q86 -147 264 -147q158 0 234 127q32 52 41 132h120q-46 -213 -187 -303q-93 -60 -214 -63z" />
    <glyph glyph-name="eacute" unicode="&#xe9;" horiz-adv-x="924" vert-adv-y="1549" 
d="M766 308h124q-42 -111 -87 -174q-55 -76 -142 -118q-89 -43 -195 -43q-217 0 -337 158q-96 128 -96 344t99 361q120 175 342 175q195 0 306 -131q87 -103 103 -296q3 -33 7 -111h-739q0 -144 46 -235q82 -162 273 -162q155 0 242 111q36 46 54 121zM766 577
q-5 109 -40 180q-75 152 -249 152q-166 0 -253 -131q-50 -76 -68 -201h610zM432 1092l140 253h164l-206 -253h-98z" />
    <glyph glyph-name="egrave" unicode="&#xe8;" horiz-adv-x="924" vert-adv-y="1549" 
d="M766 308h124q-42 -111 -87 -174q-55 -76 -142 -118q-89 -43 -195 -43q-217 0 -337 158q-96 128 -96 344t99 361q120 175 342 175q195 0 306 -131q87 -103 103 -296q3 -33 7 -111h-739q0 -144 46 -235q82 -162 273 -162q155 0 242 111q36 46 54 121zM766 577
q-5 109 -40 180q-75 152 -249 152q-166 0 -253 -131q-50 -76 -68 -201h610zM532 1092h-99l-205 253h164z" />
    <glyph glyph-name="ecircumflex" unicode="&#xea;" horiz-adv-x="924" vert-adv-y="1549" 
d="M766 308h124q-42 -111 -87 -174q-55 -76 -142 -118q-89 -43 -195 -43q-217 0 -337 158q-96 128 -96 344t99 361q120 175 342 175q195 0 306 -131q87 -103 103 -296q3 -33 7 -111h-739q0 -144 46 -235q82 -162 273 -162q155 0 242 111q36 46 54 121zM766 577
q-5 109 -40 180q-75 152 -249 152q-166 0 -253 -131q-50 -76 -68 -201h610zM201 1094l203 249h144l201 -249h-131l-139 175l-149 -175h-129z" />
    <glyph glyph-name="edieresis" unicode="&#xeb;" horiz-adv-x="924" vert-adv-y="1549" 
d="M766 308h124q-42 -111 -87 -174q-55 -76 -142 -118q-89 -43 -195 -43q-217 0 -337 158q-96 128 -96 344t99 361q120 175 342 175q195 0 306 -131q87 -103 103 -296q3 -33 7 -111h-739q0 -144 46 -235q82 -162 273 -162q155 0 242 111q36 46 54 121zM766 577
q-5 109 -40 180q-75 152 -249 152q-166 0 -253 -131q-50 -76 -68 -201h610zM230 1128v174h139v-174h-139zM553 1128v174h139v-174h-139z" />
    <glyph glyph-name="iacute" unicode="&#xed;" horiz-adv-x="247" vert-adv-y="1549" 
d="M62 0v983h124v-983h-124zM68 1092l112 253h151l-165 -253h-98z" />
    <glyph glyph-name="igrave" unicode="&#xec;" horiz-adv-x="247" vert-adv-y="1549" 
d="M62 0v983h124v-983h-124zM180 1092h-98l-165 253h151z" />
    <glyph glyph-name="icircumflex" unicode="&#xee;" horiz-adv-x="247" vert-adv-y="1549" 
d="M62 0v983h124v-983h-124zM-82 1094l135 249h144l133 -249h-118l-85 175l-94 -175h-115z" />
    <glyph glyph-name="idieresis" unicode="&#xef;" horiz-adv-x="247" vert-adv-y="1549" 
d="M61 0v983h124v-983h-124zM-36 1128v174h139v-174h-139zM144 1128v174h139v-174h-139z" />
    <glyph glyph-name="ntilde" unicode="&#xf1;" horiz-adv-x="895" vert-adv-y="1549" 
d="M62 0v983h123v-119q59 66 105 94q85 53 211 53q253 0 317 -188q21 -61 21 -188v-635h-123v628q0 124 -25 174q-55 106 -209 106q-122 0 -201 -71q-75 -68 -91 -183q-5 -35 -5 -108v-546h-123zM750 1316q-35 -185 -165 -185q-43 0 -101 23q-17 7 -101 48q-36 17 -73 17
q-67 0 -92 -96h-72q15 87 56 133q48 53 118 53q54 0 128 -37q59 -29 79 -38q27 -12 57 -12q68 0 92 94h74z" />
    <glyph glyph-name="oacute" unicode="&#xf3;" horiz-adv-x="973" vert-adv-y="1549" 
d="M494 1010q222 0 352 -186q94 -135 94 -346t-101 -342q-126 -164 -353 -164q-226 0 -352 164q-101 131 -101 341q0 213 94 347q131 186 367 186zM482 906q-111 0 -200 -75q-126 -107 -126 -352q0 -171 71 -275q87 -128 260 -128q172 0 259 128q71 104 71 273
q0 175 -66 284q-41 67 -111 106q-72 39 -158 39zM430 1092l140 253h164l-206 -253h-98z" />
    <glyph glyph-name="ograve" unicode="&#xf2;" horiz-adv-x="973" vert-adv-y="1549" 
d="M494 1010q222 0 352 -186q94 -135 94 -346t-101 -342q-126 -164 -353 -164q-226 0 -352 164q-101 131 -101 341q0 213 94 347q131 186 367 186zM482 906q-111 0 -200 -75q-126 -107 -126 -352q0 -171 71 -275q87 -128 260 -128q172 0 259 128q71 104 71 273
q0 175 -66 284q-41 67 -111 106q-72 39 -158 39zM543 1092h-99l-205 253h164z" />
    <glyph glyph-name="ocircumflex" unicode="&#xf4;" horiz-adv-x="973" vert-adv-y="1549" 
d="M494 1010q222 0 352 -186q94 -135 94 -346t-101 -342q-126 -164 -353 -164q-226 0 -352 164q-101 131 -101 341q0 213 94 347q131 186 367 186zM482 906q-111 0 -200 -75q-126 -107 -126 -352q0 -171 71 -275q87 -128 260 -128q172 0 259 128q71 104 71 273
q0 175 -66 284q-41 67 -111 106q-72 39 -158 39zM212 1094l203 249h144l201 -249h-131l-139 175l-149 -175h-129z" />
    <glyph glyph-name="odieresis" unicode="&#xf6;" horiz-adv-x="973" vert-adv-y="1549" 
d="M494 1010q222 0 352 -186q94 -135 94 -346t-101 -342q-126 -164 -353 -164q-226 0 -352 164q-101 131 -101 341q0 213 94 347q131 186 367 186zM482 906q-111 0 -200 -75q-126 -107 -126 -352q0 -171 71 -275q87 -128 260 -128q172 0 259 128q71 104 71 273
q0 175 -66 284q-41 67 -111 106q-72 39 -158 39zM255 1128v174h139v-174h-139zM578 1128v174h139v-174h-139z" />
    <glyph glyph-name="otilde" unicode="&#xf5;" horiz-adv-x="973" vert-adv-y="1549" 
d="M494 1010q222 0 352 -186q94 -135 94 -346t-101 -342q-126 -164 -353 -164q-226 0 -352 164q-101 131 -101 341q0 213 94 347q131 186 367 186zM482 906q-111 0 -200 -75q-126 -107 -126 -352q0 -171 71 -275q87 -128 260 -128q172 0 259 128q71 104 71 273
q0 175 -66 284q-41 67 -111 106q-72 39 -158 39zM788 1316q-35 -185 -165 -185q-43 0 -101 23q-17 7 -101 48q-36 17 -73 17q-67 0 -92 -96h-72q15 87 56 133q48 53 118 53q54 0 128 -37q59 -29 79 -38q27 -12 57 -12q68 0 92 94h74z" />
    <glyph glyph-name="uacute" unicode="&#xfa;" horiz-adv-x="895" vert-adv-y="1549" 
d="M834 983v-983h-123v119q-58 -66 -105 -94q-85 -53 -211 -53q-253 0 -317 188q-21 61 -21 215v608h123v-615q0 -68 2 -93q9 -110 81 -159q61 -41 151 -41q154 0 237 111q60 81 60 224v573h123zM391 1092l140 253h164l-206 -253h-98z" />
    <glyph glyph-name="ugrave" unicode="&#xf9;" horiz-adv-x="895" vert-adv-y="1549" 
d="M834 983v-983h-123v119q-58 -66 -105 -94q-85 -53 -211 -53q-253 0 -317 188q-21 61 -21 215v608h123v-615q0 -68 2 -93q9 -110 81 -159q61 -41 151 -41q154 0 237 111q60 81 60 224v573h123zM504 1092h-99l-205 253h164z" />
    <glyph glyph-name="ucircumflex" unicode="&#xfb;" horiz-adv-x="895" vert-adv-y="1549" 
d="M834 983v-983h-123v119q-58 -66 -105 -94q-85 -53 -211 -53q-253 0 -317 188q-21 61 -21 215v608h123v-615q0 -68 2 -93q9 -110 81 -159q61 -41 151 -41q154 0 237 111q60 81 60 224v573h123zM174 1094l203 249h144l201 -249h-131l-139 175l-149 -175h-129z" />
    <glyph glyph-name="udieresis" unicode="&#xfc;" horiz-adv-x="895" vert-adv-y="1549" 
d="M834 983v-983h-123v119q-58 -66 -105 -94q-85 -53 -211 -53q-253 0 -317 188q-21 61 -21 215v608h123v-615q0 -68 2 -93q9 -110 81 -159q61 -41 151 -41q154 0 237 111q60 81 60 224v573h123zM216 1128v174h139v-174h-139zM539 1128v174h139v-174h-139z" />
    <glyph glyph-name="dagger" unicode="&#x2020;" horiz-adv-x="878" vert-adv-y="1549" 
d="M859 960v-111h-356v-1081h-125v1081h-358v111h358v405h125v-405h356z" />
    <glyph glyph-name="degree" unicode="&#xb0;" horiz-adv-x="775" vert-adv-y="1549" 
d="M391 1379q117 0 203 -84q86 -83 86 -202q0 -118 -86 -202q-85 -84 -206 -84t-206 84q-86 84 -86 202q0 120 86 202q87 84 209 84zM386 1282q-77 0 -135 -56q-56 -55 -56 -133t56 -133q57 -56 137 -56t137 56q56 55 56 133q0 79 -56 133q-59 56 -139 56z" />
    <glyph glyph-name="cent" unicode="&#xa2;" horiz-adv-x="897" vert-adv-y="1549" 
d="M755 527h123q-31 -160 -127 -255q-100 -94 -226 -107v-185h-92v185q-88 8 -144 32q-138 59 -208 221q-48 111 -48 253q0 274 160 420q86 79 240 105v185h92v-185q166 -11 264 -119q71 -83 89 -215h-123q-12 213 -230 227v-816q107 17 170 93q50 67 60 161zM433 274v811
q-124 -21 -187 -104q-91 -118 -91 -305q0 -169 78 -283q67 -98 200 -119z" />
    <glyph glyph-name="sterling" unicode="&#xa3;" horiz-adv-x="968" vert-adv-y="1549" 
d="M879 166l65 -104q-117 -89 -247 -89q-44 0 -86 12q-29 8 -101 30q-117 36 -192 36q-110 0 -240 -78l-64 89q65 39 109 84q117 118 117 256q0 105 -57 221h-169v79h135q-5 12 -11 27q-34 83 -46 123q-17 55 -17 125q0 187 139 301q121 101 299 101q243 0 355 -189
q45 -77 61 -233h-136q-1 115 -46 185q-77 119 -237 119q-134 0 -217 -78q-81 -77 -81 -192q0 -112 79 -289h354v-79h-322q42 -122 42 -208q0 -112 -106 -260q69 9 105 9q69 0 172 -32q123 -38 176 -38q79 0 167 72z" />
    <glyph glyph-name="section" unicode="&#xa7;" horiz-adv-x="927" vert-adv-y="1549" 
d="M794 1056h-126q-12 225 -213 225q-73 0 -123 -34q-65 -43 -65 -122t81 -139q23 -17 219 -130q186 -108 248 -174q78 -82 78 -188q0 -111 -83 -193q-40 -40 -107 -70q46 -45 65 -76q33 -56 33 -127q0 -123 -99 -207q-89 -74 -232 -74q-198 0 -293 136q-54 79 -59 214h128
q12 -238 227 -238q95 0 149 52q49 46 49 111q0 57 -43 106q-36 43 -177 127q-35 21 -185 108q-120 69 -176 140q-57 71 -57 169q0 185 189 263q-83 85 -83 184q0 134 112 213q84 59 207 59q201 0 288 -139q47 -76 48 -196zM301 866q-69 -33 -100 -68q-45 -50 -45 -117
q0 -71 68 -132q44 -38 233 -149q85 -50 162 -101q149 64 149 178q0 71 -70 137q-46 44 -207 138q-159 94 -190 114z" />
    <glyph glyph-name="bullet" unicode="&#x2022;" horiz-adv-x="1365" vert-adv-y="1549" 
d="M689 978q113 0 196 -83q84 -83 84 -201t-84 -201q-83 -83 -200 -83t-200 83q-84 83 -84 200q0 121 84 202q85 83 204 83z" />
    <glyph glyph-name="paragraph" unicode="&#xb6;" horiz-adv-x="944" vert-adv-y="1549" 
d="M889 1365v-1597h-119v1478h-145v-1478h-119v829h-77q-143 0 -217 33q-103 45 -150 158q-35 85 -35 194q0 187 92 293q53 59 132 77q59 13 133 13h505z" />
    <glyph glyph-name="germandbls" unicode="&#xdf;" horiz-adv-x="893" vert-adv-y="1549" 
d="M62 0v950q0 117 6.5 168.5t27.5 95.5q45 95 151 142q84 37 186 37q159 0 254 -88q101 -93 101 -245q0 -116 -63 -196q-36 -46 -109 -86q93 -37 141 -81q108 -100 108 -294q0 -179 -100 -297q-113 -134 -311 -134q-68 0 -151 21v109q85 -25 137 -25q101 0 184 61
q116 84 116 265q0 158 -95 241q-82 73 -230 73q-41 0 -85 -7v104q34 -5 60 -5q104 0 174 46q97 62 97 210q0 105 -60 162q-62 59 -176 59q-184 0 -225 -146q-15 -55 -15 -183v-957h-123z" />
    <glyph glyph-name="registered" unicode="&#xae;" horiz-adv-x="1480" vert-adv-y="1549" 
d="M461 300v779h333q147 0 207 -50q69 -59 69 -163q0 -131 -116 -184q46 -24 64 -58q15 -25 19 -63q3 -29 8 -98q7 -100 14 -114q6 -17 42 -49h-119q-17 45 -22 129q-10 135 -39 178q-20 28 -64 35q-18 3 -84 3h-219v-345h-93zM554 721h209q107 0 149 21q63 33 63 125
q0 75 -48 107q-32 21 -80 24q-33 2 -81 2h-212v-279zM750 1390q189 0 358 -105q170 -104 260 -281q77 -152 77 -322q0 -199 -104 -369q-103 -169 -280 -260q-152 -78 -321 -78q-197 0 -367 104t-261 282q-78 153 -78 320q0 200 104 372q102 168 283 260q150 77 329 77z
M733 1306q-165 0 -313 -92t-226 -248q-68 -134 -68 -283q0 -176 91 -327q91 -149 245 -229q132 -68 278 -68q253 0 433 183t180 439q0 177 -90 328q-88 147 -244 229q-130 68 -286 68z" />
    <glyph glyph-name="copyright" unicode="&#xa9;" horiz-adv-x="1480" vert-adv-y="1549" 
d="M1096 586q-15 -98 -57 -160q-96 -141 -289 -141q-181 0 -278 120q-89 110 -89 290q0 151 75 256q102 143 302 143q261 0 324 -247h-92q-54 168 -236 168q-158 0 -227 -118q-52 -88 -52 -212q0 -143 71 -230q74 -91 204 -91q137 0 211 108q33 48 41 114h92zM750 1390
q189 0 358 -105q170 -104 260 -281q77 -152 77 -322q0 -199 -104 -369q-103 -169 -280 -260q-152 -78 -321 -78q-197 0 -367 104t-261 282q-78 153 -78 320q0 200 104 372q102 168 283 260q150 77 329 77zM733 1306q-165 0 -313 -92t-226 -248q-68 -134 -68 -283
q0 -176 91 -327q91 -149 245 -229q132 -68 278 -68q253 0 433 183t180 439q0 177 -90 328q-88 147 -244 229q-130 68 -286 68z" />
    <glyph glyph-name="trademark" unicode="&#x2122;" horiz-adv-x="1569" vert-adv-y="1549" 
d="M291 587v699h-262v79h616v-79h-260v-699h-94zM748 587v778h110l274 -664l271 664h110v-778h-87v614l-250 -614h-85l-259 615v-615h-84z" />
    <glyph glyph-name="acute" unicode="&#xb4;" vert-adv-y="1549" 
d="M456 1092l140 253h164l-206 -253h-98z" />
    <glyph glyph-name="dieresis" unicode="&#xa8;" vert-adv-y="1549" 
d="M281 1128v174h139v-174h-139zM604 1128v174h139v-174h-139z" />
    <glyph glyph-name="notequal" unicode="&#x2260;" vert-adv-y="1549" 
d="M562 898l111 233l89 -32l-96 -201h290v-109h-341l-95 -202h436v-109h-487l-116 -243l-88 32l99 211h-296v109h347l96 202h-443v109h494z" />
    <glyph glyph-name="AE" unicode="&#xc6;" horiz-adv-x="1707" vert-adv-y="1549" 
d="M5 0l526 1365h1134v-117h-718v-488h662v-108h-662v-535h737v-117h-871v424h-514l-159 -424h-135zM343 534h470v714h-203z" />
    <glyph glyph-name="Oslash" unicode="&#xd8;" horiz-adv-x="1328" vert-adv-y="1549" 
d="M19 21l153 175q-63 89 -93 172q-48 135 -48 307q0 290 145 490q81 112 207 169q123 56 271 56q270 0 432 -157l147 166l77 -69l-158 -178q140 -199 140 -487q0 -317 -174 -511q-163 -183 -457 -183q-151 0 -266 50q-73 32 -153 100l-147 -168zM261 300l740 836
q-119 136 -331 136q-282 0 -405 -205q-96 -159 -96 -387q0 -219 92 -380zM329 218q47 -52 110 -82q107 -50 229 -50q226 0 351 151q137 165 137 435q0 229 -93 378z" />
    <glyph glyph-name="infinity" unicode="&#x221e;" horiz-adv-x="1365" vert-adv-y="1549" 
d="M684 630q-54 -77 -97 -123q-107 -116 -252 -116q-139 0 -224 99q-72 84 -72 212t78 210q86 91 219 91q136 0 249 -116q44 -45 96 -123q52 77 96 123q109 116 253 116q142 0 226 -101q70 -84 70 -208q0 -133 -82 -217q-85 -86 -215 -86q-135 0 -247 114q-47 48 -98 125z
M731 697q7 -9 14 -21q124 -199 277 -199q89 0 147 61q59 63 59 160q0 105 -69 167q-59 52 -139 52q-123 0 -224 -128q-21 -27 -45 -62q-20 -29 -20 -30zM633 696q-15 25 -20 32q-50 76 -104 123q-75 66 -168 66q-88 0 -146 -61q-58 -62 -58 -160q0 -105 69 -166
q59 -52 139 -52q123 0 224 127q21 27 45 61q20 30 19 30z" />
    <glyph glyph-name="plusminus" unicode="&#xb1;" horiz-adv-x="976" vert-adv-y="1549" 
d="M134 825h297v284h115v-284h297v-109h-297v-278h-115v278h-297v109zM134 278h709v-109h-709v109z" />
    <glyph glyph-name="lessequal" unicode="&#x2264;" vert-adv-y="1549" 
d="M955 1198v-126l-742 -298l742 -297v-126l-887 366v116zM955 291v-117h-887v117h887z" />
    <glyph glyph-name="greaterequal" unicode="&#x2265;" vert-adv-y="1549" 
d="M68 1198l887 -366v-116l-887 -365v126l742 297l-742 298v126zM68 291h887v-117h-887v117z" />
    <glyph glyph-name="yen" unicode="&#xa5;" horiz-adv-x="976" vert-adv-y="1549" 
d="M429 316h-280v104h280v151h-280v102h269l-420 692h162l335 -583l334 583h148l-412 -692h271v-102h-282v-151h282v-104h-282v-316h-125v316z" />
    <glyph glyph-name="mu" unicode="&#xb5;" horiz-adv-x="1104" vert-adv-y="1549" 
d="M171 -353v1336h123v-563q0 -112 19 -164q31 -82 106 -130q64 -41 136 -41q128 0 204 118q33 51 42 104q10 53 10 127v549h123v-983h-123v124q-49 -75 -97 -105q-71 -46 -159 -46q-106 0 -187 62q-33 26 -74 89v-477h-123z" />
    <glyph glyph-name="partialdiff" unicode="&#x2202;" vert-adv-y="1549" 
d="M187 1270l16 104q159 -23 268 -71q253 -109 379 -363q103 -205 103 -453q0 -211 -95 -339q-67 -90 -173 -137q-83 -37 -175 -37q-181 0 -306 131q-133 138 -133 335q0 159 92 282q70 93 179 137q78 32 162 32q137 0 223 -71q32 -27 88 -97q-44 126 -61 160
q-84 173 -248 273q-139 87 -319 114zM521 793q-112 0 -200 -70q-54 -43 -88 -109q-44 -84 -44 -178q0 -115 63 -211q45 -70 116 -108q72 -39 149 -39q109 0 196 74q122 105 122 292q0 169 -102 266q-87 83 -212 83z" />
    <glyph glyph-name="summation" unicode="&#x2211;" horiz-adv-x="1365" vert-adv-y="1549" 
d="M1214 1536v-458h-116l-11 340h-876l514 -865l-513 -949h894l6 341h120v-457h-1161v136l504 929l-504 851v132h1143z" />
    <glyph glyph-name="product" unicode="&#x220f;" horiz-adv-x="1365" vert-adv-y="1549" 
d="M59 1536h1248v-104h-152v-1839h152v-105h-427v105h159v1839h-712v-1839h157v-105h-425v105h153v1839h-153v104z" />
    <glyph glyph-name="pi" unicode="&#x3c0;" horiz-adv-x="1108" vert-adv-y="1549" 
d="M187 0v882h-148v98h1030v-98h-147v-882h-120v882h-495v-882h-120z" />
    <glyph glyph-name="integral" unicode="&#x222b;" vert-adv-y="1549" 
d="M222 -490l29 118q43 -21 79 -21q78 0 102 59q14 34 14 187v1297q0 189 16 246q20 68 89 108q54 32 131 32q45 0 121 -22l-29 -118q-43 21 -81 21q-73 0 -97 -55q-17 -36 -17 -158v-1358q0 -130 -8 -182q-15 -90 -99 -135q-72 -40 -156 -40q-29 0 -94 21z" />
    <glyph glyph-name="ordfeminine" unicode="&#xaa;" horiz-adv-x="612" vert-adv-y="1549" 
d="M612 611v-63q-40 -14 -65 -14q-44 0 -68 20q-20 17 -28 64q-32 -32 -55 -47q-67 -42 -164 -42q-101 0 -157 52q-48 45 -48 121q0 77 48 124q33 32 74 43q35 11 86 18l154 21q52 7 57 19q7 14 7 47q0 41 -17 64q-31 43 -138 43q-97 0 -130 -51q-15 -24 -19 -77h-96
q11 203 246 203q142 0 203 -64q39 -41 39 -132v-306q0 -51 30 -51q14 0 41 8zM450 845l-204 -30q-74 -11 -103 -39q-25 -25 -25 -71q0 -45 31 -72q34 -29 94 -29q83 0 142 43q38 27 50 58q15 35 15 101v39z" />
    <glyph glyph-name="ordmasculine" unicode="&#xba;" horiz-adv-x="640" vert-adv-y="1549" 
d="M324 1156q144 0 228 -113q60 -81 60 -207q0 -127 -65 -207q-81 -99 -227 -99q-147 0 -228 99q-65 79 -65 206q0 128 60 208q86 113 237 113zM316 1081q-102 0 -158 -83q-40 -60 -40 -163q0 -98 43 -157q54 -73 159 -73q104 0 158 73q43 59 43 157q0 102 -40 163
q-54 83 -165 83z" />
    <glyph glyph-name="Ohm" unicode="&#x2126;" horiz-adv-x="1365" vert-adv-y="1549" 
d="M57 0v111h394q-154 87 -256 217q-140 176 -140 413q0 205 105 369q103 161 272 236q117 52 250 52q242 0 416 -158q103 -94 159 -229q53 -128 53 -272q0 -253 -165 -443q-95 -108 -230 -185h393v-111h-529v104q149 84 235 181q169 193 169 440q0 258 -171 426
q-138 135 -326 135q-193 0 -332 -135q-171 -166 -171 -428q0 -284 212 -484q72 -68 192 -135v-104h-530z" />
    <glyph glyph-name="ae" unicode="&#xe6;" horiz-adv-x="1538" vert-adv-y="1549" 
d="M178 686h-122q14 116 71 189q105 135 319 135q139 0 230 -67q44 -32 88 -95q141 163 321 163q175 0 284 -110q131 -132 133 -435h-721q6 -170 47 -241q40 -69 110 -108q71 -39 151 -39q142 0 233 118q37 47 53 108h119q-119 -331 -415 -331q-231 0 -354 216
q-54 -84 -108 -129q-106 -87 -263 -87q-163 0 -250 86q-79 80 -79 203q0 124 84 203q64 59 205 83q38 6 171 21q126 14 151 22q32 11 36 55q1 16 1 41q0 70 -17 109q-47 111 -220 111q-160 0 -223 -95q-29 -45 -35 -126zM665 505q-13 -3 -26 -7q-45 -11 -136 -23
q-146 -17 -193 -29q-166 -43 -166 -185q0 -83 51 -132q56 -53 166 -53q148 0 232 86q75 77 75 229zM1383 568q-4 100 -36 174q-73 166 -264 166q-128 0 -214 -82q-71 -67 -84 -194q-2 -20 -3 -64h601z" />
    <glyph glyph-name="oslash" unicode="&#xf8;" horiz-adv-x="973" vert-adv-y="1549" 
d="M15 14l111 130q-93 127 -93 321q0 225 99 365q129 180 353 180q113 0 202 -47q41 -21 93 -64l107 122l71 -63l-119 -134q100 -118 100 -339q0 -255 -124 -387q-119 -127 -340 -127q-173 0 -285 104l-105 -121zM706 816q-96 88 -220 88q-111 0 -196 -68
q-132 -108 -132 -356q0 -94 18 -158q2 -10 30 -86zM264 160q89 -85 221 -85q166 0 249 109t83 291q0 165 -58 261z" />
    <glyph glyph-name="questiondown" unicode="&#xbf;" horiz-adv-x="883" vert-adv-y="1549" 
d="M521 1365v-170h-137v170h137zM510 1028q1 -122 -26 -202q-22 -61 -64 -111q-28 -33 -89 -85q-97 -83 -128 -133q-40 -67 -40 -150q0 -114 64 -180q68 -71 203 -71q166 0 242 119q46 73 46 209h129q-11 -198 -91 -299q-109 -139 -329 -139q-186 0 -290 100
q-104 99 -104 257q0 133 92 238q42 48 163 155q88 77 101 169q4 41 6 123h115z" />
    <glyph glyph-name="exclamdown" unicode="&#xa1;" horiz-adv-x="287" vert-adv-y="1549" 
d="M214 1365v-174h-140v174h140zM191 1031l3 -67l8 -195q11 -285 12 -388v-381h-140v381q1 103 13 383q8 207 11 267h93z" />
    <glyph glyph-name="logicalnot" unicode="&#xac;" vert-adv-y="1549" 
d="M826 0v446h-758v117h887v-563h-129z" />
    <glyph glyph-name="radical" unicode="&#x221a;" horiz-adv-x="1365" vert-adv-y="1549" 
d="M1365 1693v-107h-405l-482 -1586h-133l-185 618h-160v107h237l93 -301q9 -31 33 -123q32 -120 39 -151h6q11 41 52 187l57 207l109 354l240 795h499z" />
    <glyph glyph-name="florin" unicode="&#x192;" horiz-adv-x="976" vert-adv-y="1549" 
d="M682 1068h199l-17 -89h-199l-143 -826q-34 -197 -61 -253q-54 -110 -159 -162q-85 -43 -184 -43q-63 0 -98 14l22 119q34 -8 61 -8q64 0 126 24q85 33 121 121q25 60 50 201l142 813h-201l19 89h198l7 43q38 212 133 307q97 97 219 97q7 0 38 -4l-22 -137q-20 3 -31 3
q-85 0 -149 -86q-40 -54 -63 -180z" />
    <glyph glyph-name="approxequal" unicode="&#x2248;" vert-adv-y="1549" 
d="M97 712l-74 50q40 80 80 126q81 95 191 95q78 0 235 -81q91 -47 125 -59q45 -15 79 -15q70 0 123 53q35 37 72 100l74 -50q-42 -83 -83 -131q-80 -91 -187 -91q-54 0 -129 32q-40 17 -110 52q-138 70 -206 70t-123 -58q-32 -34 -67 -93zM97 381l-74 50q41 81 80 126
q81 95 191 95q78 0 235 -81q91 -46 125 -58q44 -15 79 -15q70 0 123 53q35 36 72 98l74 -50q-41 -82 -83 -130q-80 -91 -187 -91q-54 0 -129 32q-39 16 -110 52q-81 41 -115 53q-49 17 -91 17q-68 0 -123 -58q-32 -34 -67 -93z" />
    <glyph glyph-name="increment" unicode="&#x2206;" horiz-adv-x="1262" vert-adv-y="1549" 
d="M12 0l554 1365h130l555 -1365h-1239zM178 111h905l-452 1116z" />
    <glyph glyph-name="guillemotleft" unicode="&#xab;" horiz-adv-x="703" vert-adv-y="1549" 
d="M355 823v-143l-213 -186l213 -185v-149l-322 276v107zM670 823v-143l-214 -186l214 -185v-149l-323 276v107z" />
    <glyph glyph-name="guillemotright" unicode="&#xbb;" horiz-adv-x="703" vert-adv-y="1549" 
d="M347 160v143l214 186l-214 185v149l323 -276v-107zM33 160v143l213 186l-213 185v149l322 -276v-107z" />
    <glyph glyph-name="ellipsis" unicode="&#x2026;" horiz-adv-x="1331" vert-adv-y="1549" 
d="M150 0v171h143v-171h-143zM594 0v171h143v-171h-143zM1038 0v171h143v-171h-143z" />
    <glyph glyph-name="glyph172" horiz-adv-x="962" vert-adv-y="962" 
 />
    <glyph glyph-name="Agrave" unicode="&#xc0;" horiz-adv-x="1226" vert-adv-y="1549" 
d="M5 0l538 1365h141l535 -1365h-142l-164 433h-604l-162 -433h-142zM352 540h523l-264 697zM669 1454h-99l-205 252h164z" />
    <glyph glyph-name="Atilde" unicode="&#xc3;" horiz-adv-x="1226" vert-adv-y="1549" 
d="M5 0l538 1365h141l535 -1365h-142l-164 433h-604l-162 -433h-142zM352 540h523l-264 697zM915 1649q-35 -185 -165 -185q-43 0 -101 23q-17 7 -101 48q-36 17 -73 17q-67 0 -92 -96h-72q15 87 56 133q48 53 118 53q54 0 128 -37q59 -29 79 -38q27 -12 57 -12q68 0 92 94
h74z" />
    <glyph glyph-name="Otilde" unicode="&#xd5;" horiz-adv-x="1328" vert-adv-y="1549" 
d="M675 1392q314 0 479 -234q141 -200 141 -489q0 -308 -160 -495q-173 -202 -471 -202t-471 202q-160 187 -160 494q0 293 141 490q88 123 203 177q123 57 298 57zM656 1276q-259 0 -384 -200q-101 -161 -101 -399q0 -263 124 -421q132 -168 369 -168t369 168
q124 158 124 420q0 242 -101 400q-128 200 -400 200zM966 1649q-35 -185 -165 -185q-43 0 -101 23q-17 7 -101 48q-36 17 -73 17q-67 0 -92 -96h-72q15 87 56 133q48 53 118 53q54 0 128 -37q59 -29 79 -38q27 -12 57 -12q68 0 92 94h74z" />
    <glyph glyph-name="OE" unicode="&#x152;" horiz-adv-x="1900" vert-adv-y="1549" 
d="M1876 0h-879v143q-57 -77 -117 -113q-96 -57 -234 -57q-200 0 -358 114q-254 183 -254 586q0 285 131 476q86 125 221 189q115 54 256 54q138 0 239 -58q57 -33 116 -97v128h863v-117h-727v-491h668v-109h-668v-531h743v-117zM997 508v430q0 153 -70 229
q-99 110 -282 110q-158 0 -274 -90q-200 -156 -200 -496q0 -242 105 -404q65 -100 173 -153q89 -45 193 -45q139 0 241 77q91 68 108 180q6 36 6 162z" />
    <glyph glyph-name="oe" unicode="&#x153;" horiz-adv-x="1641" vert-adv-y="1549" 
d="M1489 307h116q-26 -97 -77 -166q-67 -91 -143 -129q-77 -39 -188 -39q-161 0 -268 99q-53 49 -100 129q-111 -229 -361 -229q-201 0 -320 141q-115 135 -115 378t129 387q119 133 307 133q176 0 280 -98q42 -39 88 -125q140 223 366 223q156 0 260 -97q111 -104 136 -300
q6 -56 9 -146h-714q0 -107 22 -173q37 -113 122 -170q73 -50 165 -50q132 0 222 109q44 53 64 123zM468 908q-137 0 -226 -105q-87 -102 -87 -306q0 -212 86 -323q79 -101 227 -101q145 0 229 108q84 109 84 298q0 187 -63 294q-79 135 -250 135zM1487 571q-1 97 -30 167
q-34 81 -99 126q-67 46 -155 46q-115 0 -197 -78q-93 -89 -110 -261h591z" />
    <glyph glyph-name="endash" unicode="&#x2013;" horiz-adv-x="778" vert-adv-y="1549" 
d="M0 433v117h778v-117h-778z" />
    <glyph glyph-name="emdash" unicode="&#x2014;" horiz-adv-x="1311" vert-adv-y="1549" 
d="M0 433v117h1311v-117h-1311z" />
    <glyph glyph-name="quotedblleft" unicode="&#x201c;" horiz-adv-x="408" vert-adv-y="1549" 
d="M33 983v150q3 155 35 200q41 66 108 88v-82q-35 -16 -48 -41q-21 -39 -21 -110q0 -9 1 -32h68v-173h-143zM231 983v150q3 155 35 200q41 66 108 88v-82q-34 -15 -48 -41q-21 -40 -21 -110q0 -9 1 -32h68v-173h-143z" />
    <glyph glyph-name="quotedblright" unicode="&#x201d;" horiz-adv-x="408" vert-adv-y="1549" 
d="M374 1365v-150q-3 -156 -35 -200q-41 -66 -108 -88v82q34 15 48 41q21 39 21 110q0 9 -1 32h-68v173h143zM176 1365v-150q-4 -156 -35 -200q-41 -66 -108 -88v82q35 16 48 41q21 39 21 110q0 10 -1 32h-68v173h143z" />
    <glyph glyph-name="quoteleft" unicode="&#x2018;" horiz-adv-x="210" vert-adv-y="1549" 
d="M33 983v150q3 155 35 200q41 66 108 88v-82q-35 -16 -48 -41q-21 -39 -21 -110q0 -9 1 -32h68v-173h-143z" />
    <glyph glyph-name="quoteright" unicode="&#x2019;" horiz-adv-x="203" vert-adv-y="1549" 
d="M169 1365v-142q-3 -148 -33 -190q-39 -62 -103 -84v78q33 15 45 39q20 37 20 113v22h-65v164h136z" />
    <glyph glyph-name="divide" unicode="&#xf7;" horiz-adv-x="976" vert-adv-y="1549" 
d="M489 1069q30 0 53 -22t23 -54t-22 -54q-23 -23 -55 -23q-31 0 -53 23q-23 22 -23 53q0 33 23 55t54 22zM489 450q31 0 53 -22q23 -22 23 -54t-22 -54q-23 -23 -55 -23q-30 0 -53 23q-23 22 -23 53q0 33 23 55t54 22zM134 737h709v-109h-709v109z" />
    <glyph glyph-name="lozenge" unicode="&#x25ca;" horiz-adv-x="1365" vert-adv-y="1549" 
d="M683 1419l532 -736l-532 -736l-532 736zM683 1237l-404 -554l404 -555l403 555z" />
    <glyph glyph-name="ydieresis" unicode="&#xff;" horiz-adv-x="883" vert-adv-y="1549" 
d="M113 -235q51 -15 82 -15q96 0 147 136l46 125l-383 972h131l311 -817l305 817h126l-447 -1150q-39 -100 -96 -143q-57 -42 -147 -42q-35 0 -75 10v107zM210 1128v174h139v-174h-139zM533 1128v174h139v-174h-139z" />
    <glyph glyph-name="Ydieresis" unicode="&#x178;" horiz-adv-x="1165" vert-adv-y="1549" 
d="M518 0v600l-513 765h168l413 -637l420 637h154l-505 -765v-600h-137zM324 1479v174h139v-174h-139zM702 1479v174h139v-174h-139z" />
    <glyph glyph-name="fraction" unicode="&#x2215;" horiz-adv-x="214" vert-adv-y="1549" 
d="M-388 0l872 1365h117l-871 -1365h-118z" />
    <glyph glyph-name="currency" unicode="&#xa4;" horiz-adv-x="1015" vert-adv-y="1549" 
d="M27 1055l80 80l111 -110q120 95 289 95t289 -95l111 110l80 -80l-113 -113q89 -128 89 -287t-89 -286l113 -113l-80 -81l-111 111q-120 -95 -289 -95t-289 95l-111 -111l-80 81l113 113q-89 129 -89 286q0 158 89 287zM502 1016q-155 0 -247 -113q-80 -99 -80 -248
q0 -148 80 -247q91 -113 252 -113t252 113q80 99 80 247q0 147 -80 248q-89 113 -257 113z" />
    <glyph glyph-name="guilsinglleft" unicode="&#x2039;" horiz-adv-x="389" vert-adv-y="1549" 
d="M355 823v-143l-213 -186l213 -185v-149l-322 276v107z" />
    <glyph glyph-name="guilsinglright" unicode="&#x203a;" horiz-adv-x="389" vert-adv-y="1549" 
d="M33 160v143l213 186l-213 185v149l322 -276v-107z" />
    <glyph glyph-name="fi" unicode="&#xf001;" horiz-adv-x="693" vert-adv-y="1549" 
d="M281 983h166v-102h-166v-881h-123v881h-144v102h144v180q0 99 42 152q53 65 153 65q35 0 94 -6v-106q-37 6 -57 6q-65 0 -90 -28q-19 -22 -19 -114v-149zM508 0v983h123v-983h-123zM508 1199v166h123v-166h-123z" />
    <glyph glyph-name="fl" unicode="&#xf002;" horiz-adv-x="693" vert-adv-y="1549" 
d="M281 983h166v-102h-166v-881h-123v881h-144v102h144v180q0 99 42 152q53 65 153 65q35 0 94 -6v-106q-37 6 -57 6q-65 0 -90 -28q-19 -22 -19 -114v-149zM508 0v1365h123v-1365h-123z" />
    <glyph glyph-name="daggerdbl" unicode="&#x2021;" horiz-adv-x="878" vert-adv-y="1549" 
d="M859 960v-111h-356v-456h356v-111h-356v-514h-125v514h-358v111h358v456h-358v111h358v405h125v-405h356z" />
    <glyph glyph-name="periodcentered" unicode="&#x2219;" horiz-adv-x="444" vert-adv-y="1549" 
d="M150 427v171h143v-171h-143z" />
    <glyph glyph-name="quotesinglbase" unicode="&#x201a;" horiz-adv-x="203" vert-adv-y="1549" 
d="M169 164v-142q-3 -148 -33 -190q-39 -62 -103 -84v78q33 15 45 39q20 37 20 113v22h-65v164h136z" />
    <glyph glyph-name="quotedblbase" unicode="&#x201e;" horiz-adv-x="408" vert-adv-y="1549" 
d="M374 173v-150q-3 -155 -35 -200q-41 -66 -108 -88v82q34 15 48 41q21 40 21 110q0 9 -1 32h-68v173h143zM176 173v-150q-4 -156 -35 -200q-41 -66 -108 -88v82q35 16 48 41q21 39 21 110q0 10 -1 32h-68v173h143z" />
    <glyph glyph-name="perthousand" unicode="&#x2030;" horiz-adv-x="1807" vert-adv-y="1549" 
d="M289 1372q131 0 192 -113q48 -88 48 -235q0 -146 -48 -235q-61 -113 -196 -113t-196 113q-48 89 -48 233q0 350 248 350zM283 1289q-50 0 -87 -39q-57 -59 -57 -226q0 -265 146 -265t146 264q0 266 -148 266zM122 0l871 1365h118l-871 -1365h-118zM952 689
q131 0 192 -113q48 -88 48 -235q0 -146 -48 -235q-61 -113 -197 -113q-135 0 -196 113q-48 89 -48 233q0 350 249 350zM945 606q-49 0 -87 -39q-57 -59 -57 -226q0 -265 146 -265q147 0 147 264q0 266 -149 266zM1526 689q131 0 192 -113q48 -88 48 -235q0 -146 -48 -235
q-61 -113 -196 -113t-196 113q-48 89 -48 233q0 350 248 350zM1520 606q-50 0 -87 -39q-57 -59 -57 -226q0 -265 146 -265t146 264q0 266 -148 266z" />
    <glyph glyph-name="Acircumflex" unicode="&#xc2;" horiz-adv-x="1226" vert-adv-y="1549" 
d="M5 0l538 1365h141l535 -1365h-142l-164 433h-604l-162 -433h-142zM352 540h523l-264 697zM339 1456l203 248h144l201 -248h-131l-139 174l-149 -174h-129z" />
    <glyph glyph-name="Ecircumflex" unicode="&#xca;" horiz-adv-x="1021" vert-adv-y="1549" 
d="M62 0v1365h917v-117h-780v-491h717v-110h-717v-532h798v-115h-935zM237 1456l203 248h144l201 -248h-131l-139 174l-149 -174h-129z" />
    <glyph glyph-name="Aacute" unicode="&#xc1;" horiz-adv-x="1226" vert-adv-y="1549" 
d="M5 0l538 1365h141l535 -1365h-142l-164 433h-604l-162 -433h-142zM352 540h523l-264 697zM563 1454l140 252h164l-206 -252h-98z" />
    <glyph glyph-name="Edieresis" unicode="&#xcb;" horiz-adv-x="1021" vert-adv-y="1549" 
d="M62 0v1365h917v-117h-780v-491h717v-110h-717v-532h798v-115h-935zM252 1479v174h139v-174h-139zM630 1479v174h139v-174h-139z" />
    <glyph glyph-name="Egrave" unicode="&#xc8;" horiz-adv-x="1021" vert-adv-y="1549" 
d="M62 0v1365h917v-117h-780v-491h717v-110h-717v-532h798v-115h-935zM567 1454h-99l-205 252h164z" />
    <glyph glyph-name="Iacute" unicode="&#xcd;" horiz-adv-x="262" vert-adv-y="1549" 
d="M62 0v1365h139v-1365h-139zM75 1454l140 252h164l-206 -252h-98z" />
    <glyph glyph-name="Icircumflex" unicode="&#xce;" horiz-adv-x="262" vert-adv-y="1549" 
d="M62 0v1365h139v-1365h-139zM-75 1456l135 248h144l133 -248h-118l-85 174l-94 -174h-115z" />
    <glyph glyph-name="Idieresis" unicode="&#xcf;" horiz-adv-x="262" vert-adv-y="1549" 
d="M62 0v1365h139v-1365h-139zM-49 1479v174h125v-174h-125zM186 1479v174h125v-174h-125z" />
    <glyph glyph-name="Igrave" unicode="&#xcc;" horiz-adv-x="262" vert-adv-y="1549" 
d="M61 0v1365h139v-1365h-139zM187 1454h-99l-205 252h164z" />
    <glyph glyph-name="Oacute" unicode="&#xd3;" horiz-adv-x="1328" vert-adv-y="1549" 
d="M675 1392q314 0 479 -234q141 -200 141 -489q0 -308 -160 -495q-173 -202 -471 -202t-471 202q-160 187 -160 494q0 293 141 490q88 123 203 177q123 57 298 57zM656 1276q-259 0 -384 -200q-101 -161 -101 -399q0 -263 124 -421q132 -168 369 -168t369 168
q124 158 124 420q0 242 -101 400q-128 200 -400 200zM608 1454l140 252h164l-206 -252h-98z" />
    <glyph glyph-name="Ocircumflex" unicode="&#xd4;" horiz-adv-x="1328" vert-adv-y="1549" 
d="M675 1392q314 0 479 -234q141 -200 141 -489q0 -308 -160 -495q-173 -202 -471 -202t-471 202q-160 187 -160 494q0 293 141 490q88 123 203 177q123 57 298 57zM656 1276q-259 0 -384 -200q-101 -161 -101 -399q0 -263 124 -421q132 -168 369 -168t369 168
q124 158 124 420q0 242 -101 400q-128 200 -400 200zM390 1456l203 248h144l201 -248h-131l-139 174l-149 -174h-129z" />
    <glyph glyph-name="glyph210" horiz-adv-x="356" vert-adv-y="1549" 
 />
    <glyph glyph-name="Ograve" unicode="&#xd2;" horiz-adv-x="1328" vert-adv-y="1549" 
d="M675 1392q314 0 479 -234q141 -200 141 -489q0 -308 -160 -495q-173 -202 -471 -202t-471 202q-160 187 -160 494q0 293 141 490q88 123 203 177q123 57 298 57zM656 1276q-259 0 -384 -200q-101 -161 -101 -399q0 -263 124 -421q132 -168 369 -168t369 168
q124 158 124 420q0 242 -101 400q-128 200 -400 200zM721 1454h-99l-205 252h164z" />
    <glyph glyph-name="Uacute" unicode="&#xda;" horiz-adv-x="1121" vert-adv-y="1549" 
d="M57 1365h137v-874q0 -91 6 -132q19 -138 126 -209q93 -61 235 -61q149 0 243 67q102 72 119 224q4 40 4 125v860h138v-870q0 -208 -73 -322q-66 -102 -186 -153q-110 -47 -249 -47q-190 0 -320 81q-147 92 -172 284q-8 59 -8 147v880zM505 1454l140 252h164l-206 -252
h-98z" />
    <glyph glyph-name="Ucircumflex" unicode="&#xdb;" horiz-adv-x="1121" vert-adv-y="1549" 
d="M57 1365h137v-874q0 -91 6 -132q19 -138 126 -209q93 -61 235 -61q149 0 243 67q102 72 119 224q4 40 4 125v860h138v-870q0 -208 -73 -322q-66 -102 -186 -153q-110 -47 -249 -47q-190 0 -320 81q-147 92 -172 284q-8 59 -8 147v880zM287 1456l203 248h144l201 -248
h-131l-139 174l-149 -174h-129z" />
    <glyph glyph-name="Ugrave" unicode="&#xd9;" horiz-adv-x="1121" vert-adv-y="1549" 
d="M57 1365h137v-874q0 -91 6 -132q19 -138 126 -209q93 -61 235 -61q149 0 243 67q102 72 119 224q4 40 4 125v860h138v-870q0 -208 -73 -322q-66 -102 -186 -153q-110 -47 -249 -47q-190 0 -320 81q-147 92 -172 284q-8 59 -8 147v880zM617 1454h-99l-205 252h164z" />
    <glyph glyph-name="dotlessi" unicode="&#x131;" horiz-adv-x="247" vert-adv-y="1549" 
d="M62 0v983h124v-983h-124z" />
    <glyph glyph-name="circumflex" unicode="&#x2c6;" vert-adv-y="1549" 
d="M238 1094l203 249h144l201 -249h-131l-139 175l-149 -175h-129z" />
    <glyph glyph-name="tilde" unicode="&#x2dc;" vert-adv-y="1549" 
d="M814 1316q-35 -185 -165 -185q-43 0 -101 23q-17 7 -101 48q-36 17 -73 17q-67 0 -92 -96h-72q15 87 56 133q48 53 118 53q54 0 128 -37q59 -29 79 -38q27 -12 57 -12q68 0 92 94h74z" />
    <glyph glyph-name="macron" unicode="&#x2c9;" vert-adv-y="1549" 
d="M747 1261v-92h-470v92h470z" />
    <glyph glyph-name="breve" unicode="&#x2d8;" vert-adv-y="1549" 
d="M789 1337q-13 -83 -49 -135q-75 -110 -231 -110q-153 0 -229 109q-38 56 -44 136h82q33 -151 194 -151q126 0 172 86q14 25 23 65h82z" />
    <glyph glyph-name="dotaccent" unicode="&#x2d9;" vert-adv-y="1549" 
d="M443 1128v174h139v-174h-139z" />
    <glyph glyph-name="ring" unicode="&#x2da;" vert-adv-y="1549" 
d="M514 1416q68 0 117 -48q52 -50 52 -122q0 -71 -50 -121t-121 -50t-121 50t-50 120q0 74 52 123q50 48 121 48zM511 1342q-38 0 -66 -27q-29 -28 -29 -69q0 -39 28 -67q29 -28 68 -28q40 0 68 28t28 67q0 42 -29 69q-28 27 -68 27z" />
    <glyph glyph-name="cedilla" unicode="&#xb8;" vert-adv-y="1549" 
d="M556 0l-61 -98q30 7 52 7q56 0 95 -32q40 -32 40 -83q0 -66 -58 -108q-47 -34 -118 -34q-73 0 -164 36l24 55q68 -29 128 -29q46 0 75 26q19 18 19 45t-20 45q-25 23 -62 23q-30 0 -77 -16l-28 28l90 135h65z" />
    <glyph glyph-name="hungarumlaut" unicode="&#x2dd;" vert-adv-y="1549" 
d="M354 1092l140 253h125l-180 -253h-85zM569 1092l140 253h125l-180 -253h-85z" />
    <glyph glyph-name="ogonek" unicode="&#x2db;" vert-adv-y="1549" 
d="M746 0h84q-72 -42 -95 -65q-51 -51 -51 -103q0 -39 29 -66q32 -29 83 -29q33 0 73 13v-77q-43 -16 -93 -16q-69 0 -117 35q-66 47 -66 122q0 108 153 186z" />
    <glyph glyph-name="caron" unicode="&#x2c7;" vert-adv-y="1549" 
d="M238 1343h129l149 -175l139 175h131l-201 -249h-144z" />
    <glyph glyph-name="nbspace" unicode="&#xa0;" horiz-adv-x="356" vert-adv-y="1549" 
 />
    <glyph glyph-name="brokenbar" unicode="&#xa6;" vert-adv-y="1549" 
d="M446 1365h132v-677h-132v677zM446 314h132v-655h-132v655z" />
    <glyph glyph-name="sfthyphen" unicode="&#xad;" horiz-adv-x="437" vert-adv-y="1549" 
d="M0 433v117h437v-117h-437z" />
    <glyph glyph-name="twosuperior" unicode="&#xb2;" horiz-adv-x="655" vert-adv-y="1549" 
d="M604 641v-95h-566q1 128 50 201q34 53 102 101q36 26 115 68q106 58 143 97q47 48 47 121q0 144 -162 144q-110 0 -148 -78q-15 -32 -21 -120h-110q4 126 59 195q77 98 225 98q119 0 192 -63q77 -65 77 -173q0 -110 -80 -188q-47 -46 -168 -112q-122 -67 -168 -117
q-23 -26 -38 -79h451z" />
    <glyph glyph-name="threesuperior" unicode="&#xb3;" horiz-adv-x="655" vert-adv-y="1549" 
d="M33 809h107q6 -73 28 -107q45 -69 149 -69q87 0 141 52q41 41 41 103q0 79 -59 118q-46 30 -123 30q-22 0 -70 -4v91q35 -5 60 -5q77 0 120 32q49 38 49 104q0 57 -41 90q-42 33 -112 33q-107 0 -146 -70q-19 -35 -20 -107h-107v24q0 76 39 136q74 113 237 113
q113 0 185 -59q73 -60 73 -154q0 -61 -30 -110q-18 -28 -67 -64q68 -34 93 -74q31 -49 31 -116q0 -106 -75 -178q-83 -80 -218 -80q-164 0 -243 111q-43 60 -43 136q0 8 1 24z" />
    <glyph glyph-name="middot" unicode="&#xb7;" horiz-adv-x="444" vert-adv-y="1549" 
d="M150 427v171h143v-171h-143z" />
    <glyph glyph-name="onesuperior" unicode="&#xb9;" horiz-adv-x="655" vert-adv-y="1549" 
d="M354 546v595h-199v75h18q104 0 153 38q41 32 47 111h86v-819h-105z" />
    <glyph glyph-name="onequarter" unicode="&#xbc;" horiz-adv-x="1525" vert-adv-y="1549" 
d="M354 546v595h-199v75h18q104 0 153 38q41 32 47 111h86v-819h-105zM267 0l872 1365h118l-871 -1365h-119zM1272 0v198h-372v82l386 539h89v-530h118v-91h-118v-198h-103zM1022 289h250v357z" />
    <glyph glyph-name="onehalf" unicode="&#xbd;" horiz-adv-x="1525" vert-adv-y="1549" 
d="M354 546v595h-199v75h18q104 0 153 38q41 32 47 111h86v-819h-105zM267 0l872 1365h118l-871 -1365h-119zM1473 95v-95h-566q1 128 50 201q34 53 103 101q36 26 114 68q106 58 144 97q46 48 46 121q0 144 -161 144q-110 0 -148 -78q-16 -33 -22 -120h-110q5 126 59 195
q77 98 225 98q119 0 193 -63q76 -66 76 -173q0 -111 -79 -188q-47 -46 -168 -112q-122 -67 -169 -117q-22 -26 -38 -79h451z" />
    <glyph glyph-name="threequarters" unicode="&#xbe;" horiz-adv-x="1525" vert-adv-y="1549" 
d="M33 809h107q6 -73 28 -107q45 -69 149 -69q87 0 141 52q41 41 41 103q0 79 -59 118q-46 30 -123 30q-22 0 -70 -4v91q35 -5 60 -5q77 0 120 32q49 38 49 104q0 57 -41 90q-42 33 -112 33q-107 0 -146 -70q-19 -35 -20 -107h-107v24q0 76 39 136q74 113 237 113
q113 0 185 -59q73 -60 73 -154q0 -61 -30 -110q-18 -28 -67 -64q68 -34 93 -74q31 -49 31 -116q0 -106 -75 -178q-83 -80 -218 -80q-164 0 -243 111q-43 60 -43 136q0 8 1 24zM308 0l872 1365h118l-871 -1365h-119zM1272 0v198h-372v82l386 539h89v-530h118v-91h-118v-198
h-103zM1022 289h250v357z" />
    <glyph glyph-name="Eth" unicode="&#xd0;" horiz-adv-x="1179" vert-adv-y="1549" 
d="M62 0v667h-96v110h96v588h455q118 0 183 -7q225 -25 349 -230q98 -163 98 -431q0 -274 -97 -442q-121 -209 -346 -245q-66 -10 -182 -10h-460zM200 667v-550h312q104 0 160 10q170 30 260 202q78 148 78 374q0 215 -76 351q-91 163 -269 187q-52 7 -157 7h-308v-471h292
v-110h-292z" />
    <glyph glyph-name="multiply" unicode="&#xd7;" horiz-adv-x="976" vert-adv-y="1549" 
d="M233 1018l255 -255l255 255l80 -81l-254 -254l254 -255l-80 -81l-255 255l-255 -255l-80 81l255 255l-255 254z" />
    <glyph glyph-name="Yacute" unicode="&#xdd;" horiz-adv-x="1165" vert-adv-y="1549" 
d="M518 0v600l-513 765h168l413 -637l420 637h154l-505 -765v-600h-137zM526 1454l140 252h164l-206 -252h-98z" />
    <glyph glyph-name="Thorn" unicode="&#xde;" horiz-adv-x="1036" vert-adv-y="1549" 
d="M62 0v1365h136v-204h395q147 0 226 -33q116 -49 167 -175q32 -79 32 -174q0 -199 -122 -298q-72 -59 -167 -75q-82 -13 -181 -13h-350v-393h-136zM198 511h307q147 0 201 13q175 43 175 256q0 129 -63 193q-47 49 -128 60q-59 9 -133 9h-359v-531z" />
    <glyph glyph-name="eth" unicode="&#xf0;" horiz-adv-x="973" vert-adv-y="1549" 
d="M644 1427l51 -68l-149 -111q123 -138 190 -236q125 -182 167 -300q37 -107 37 -237q0 -207 -101 -338q-126 -164 -353 -164q-226 0 -352 163q-101 131 -101 343q0 210 94 345q129 186 359 186q61 0 135 -22q-62 85 -154 201l-150 -113l-46 73l144 107q-66 82 -114 141
l64 53q33 -39 82 -92l42 -47zM482 906q-112 0 -200 -75q-126 -108 -126 -352q0 -170 71 -274q87 -128 260 -128q172 0 259 128q71 104 71 273q0 174 -66 283q-41 67 -111 106q-72 39 -158 39z" />
    <glyph glyph-name="yacute" unicode="&#xfd;" horiz-adv-x="883" vert-adv-y="1549" 
d="M113 -235q51 -15 82 -15q96 0 147 136l46 125l-383 972h131l311 -817l305 817h126l-447 -1150q-39 -100 -96 -143q-57 -42 -147 -42q-35 0 -75 10v107zM385 1092l140 253h164l-206 -253h-98z" />
    <glyph glyph-name="thorn" unicode="&#xfe;" horiz-adv-x="970" vert-adv-y="1549" 
d="M186 -348h-124v1713h124v-522q52 69 97 101q94 66 228 66q203 0 316 -155q110 -152 110 -356q0 -138 -52 -265q-107 -262 -394 -262q-121 0 -205 54q-50 32 -100 99v-473zM496 907q-108 0 -192 -69q-78 -63 -106 -166q-18 -69 -18 -171q0 -194 64 -298q36 -59 99 -93
q67 -36 148 -36q158 0 244 124q79 114 79 293q0 163 -59 268q-84 148 -259 148z" />
    <glyph glyph-name="Cacute" unicode="&#x106;" horiz-adv-x="1232" vert-adv-y="1549" 
d="M600 1454l140 252h164l-206 -252h-98zM1215 485q-23 -160 -92 -267q-161 -246 -480 -246q-206 0 -354 105q-139 99 -205 286q-51 147 -51 329q0 265 125 449q169 251 504 251q430 0 532 -416h-132q-36 112 -92 174q-114 124 -316 124q-184 0 -305 -104
q-105 -91 -151 -264q-29 -110 -29 -232q0 -257 122 -419q58 -77 151 -121q95 -46 204 -46q239 0 368 199q55 86 69 198h132z" />
    <glyph glyph-name="cacute" unicode="&#x107;" horiz-adv-x="900" vert-adv-y="1549" 
d="M434 1092l140 253h164l-206 -253h-98zM758 339h120q-39 -175 -131 -261q-114 -106 -280 -106q-197 0 -314 136q-121 140 -121 372q0 166 66 297q75 146 218 202q84 32 175 32q191 0 299 -124q72 -83 91 -214h-123q-9 81 -42 128q-72 102 -224 102q-117 0 -202 -66
q-134 -105 -134 -350q0 -153 63 -260q86 -147 264 -147q158 0 234 127q32 52 41 132z" />
    <glyph glyph-name="Ccaron" unicode="&#x10c;" horiz-adv-x="1232" vert-adv-y="1549" 
d="M383 1704h129l149 -174l139 174h131l-201 -248h-144zM1215 485q-23 -160 -92 -267q-161 -246 -480 -246q-206 0 -354 105q-139 99 -205 286q-51 147 -51 329q0 265 125 449q169 251 504 251q430 0 532 -416h-132q-36 112 -92 174q-114 124 -316 124q-184 0 -305 -104
q-105 -91 -151 -264q-29 -110 -29 -232q0 -257 122 -419q58 -77 151 -121q95 -46 204 -46q239 0 368 199q55 86 69 198h132z" />
    <glyph glyph-name="ccaron" unicode="&#x10d;" horiz-adv-x="900" vert-adv-y="1549" 
d="M217 1343h129l149 -175l139 175h131l-201 -249h-144zM758 339h120q-39 -175 -131 -261q-114 -106 -280 -106q-197 0 -314 136q-121 140 -121 372q0 166 66 297q75 146 218 202q84 32 175 32q191 0 299 -124q72 -83 91 -214h-123q-9 81 -42 128q-72 102 -224 102
q-117 0 -202 -66q-134 -105 -134 -350q0 -153 63 -260q86 -147 264 -147q158 0 234 127q32 52 41 132z" />
    <glyph glyph-name="dmacron" unicode="&#x111;" horiz-adv-x="972" vert-adv-y="1549" 
d="M910 0h-123v136q-51 -59 -92 -89q-99 -75 -227 -75q-209 0 -330 164q-105 141 -105 359q0 202 84 335q115 180 342 180q123 0 217 -64q51 -35 111 -108v267h-246v96h246v164h123v-164h68v-96h-68v-1105zM456 906q-117 0 -198 -79q-102 -101 -102 -326q0 -181 73 -293
q36 -55 93 -91q71 -43 155 -43q108 0 189 70q122 105 122 344q0 192 -73 292q-92 126 -259 126z" />
    <glyph glyph-name="Gbreve" unicode="&#x11e;" horiz-adv-x="1287" vert-adv-y="1549" 
d="M933 1689q-13 -83 -49 -135q-75 -110 -231 -110q-153 0 -229 109q-39 56 -44 136h82q32 -151 194 -151q126 0 172 86q14 25 23 65h82zM653 702h576v-702h-105v227q-86 -112 -161 -163q-134 -91 -321 -91q-202 0 -352 111q-257 192 -257 593q0 294 142 485q94 128 245 188
q107 42 237 42q189 0 331 -86q189 -113 228 -345h-131q-26 111 -81 175q-121 139 -344 139q-254 0 -383 -188q-107 -156 -107 -401q0 -241 103 -396q68 -104 178 -157q92 -45 204 -45q216 0 345 155q106 129 110 308v41h-457v110z" />
    <glyph glyph-name="gbreve" unicode="&#x11f;" horiz-adv-x="969" vert-adv-y="1549" 
d="M761 1337q-13 -83 -49 -135q-75 -110 -231 -110q-153 0 -229 109q-38 56 -44 136h82q33 -151 194 -151q126 0 172 86q14 25 23 65h82zM908 983v-806q0 -100 -7 -168q-12 -126 -64 -198q-112 -156 -372 -156q-196 0 -303 96q-65 58 -81 164h125q5 -61 43 -96
q32 -30 96 -50q62 -19 131 -19q129 0 212 65q63 50 81 127q8 33 16 225q-61 -71 -102 -99q-91 -65 -219 -65q-200 0 -318 140q-113 133 -113 362q0 198 97 335q120 170 334 170q198 0 321 -167v140h123zM473 907q-159 0 -244 -126q-75 -110 -75 -283q0 -175 79 -279
q86 -115 239 -115q147 0 234 105t87 295q0 194 -79 296q-81 107 -241 107z" />
    <glyph glyph-name="Idot" unicode="&#x130;" horiz-adv-x="262" vert-adv-y="1549" 
d="M61 1479v174h139v-174h-139zM61 0v1365h139v-1365h-139z" />
    <glyph glyph-name="Lslash" unicode="&#x141;" horiz-adv-x="928" vert-adv-y="1549" 
d="M-16 501v136l78 58v670h137v-580l296 220v-137l-296 -220v-532h710v-116h-847v558z" />
    <glyph glyph-name="lslash" unicode="&#x142;" horiz-adv-x="246" vert-adv-y="1549" 
d="M62 745l-81 -57v123l81 57v497h123v-423l80 57v-123l-80 -57v-819h-123v745z" />
    <glyph glyph-name="Scedilla" unicode="&#x15e;" horiz-adv-x="1058" vert-adv-y="1549" 
d="M559 -27l-46 -73q31 7 52 7q58 0 99 -32q41 -33 41 -85q0 -68 -60 -111q-48 -34 -120 -34q-77 0 -170 37l25 56q69 -30 132 -30q47 0 77 27q20 18 20 46q0 27 -21 46q-25 23 -64 23q-31 0 -79 -16l-29 28l75 112q-202 13 -321 115q-151 130 -150 364h132q11 -158 79 -241
q100 -122 314 -122q156 0 254 69q104 74 104 214q0 122 -94 179q-56 33 -123 51q-95 26 -213 50q-194 39 -268 82q-150 88 -150 281q0 123 70 217q119 160 402 160t405 -164q64 -87 80 -240h-137q-2 59 -11 90q-25 92 -123 150q-81 47 -215 47q-156 0 -247 -70
q-89 -70 -89 -188q0 -97 64 -152q65 -57 268 -95q206 -39 283 -68q231 -90 231 -314q0 -157 -107 -272q-126 -136 -370 -144z" />
    <glyph glyph-name="scedilla" unicode="&#x15f;" horiz-adv-x="814" vert-adv-y="1549" 
d="M437 -27l-44 -71q30 7 51 7q56 0 95 -32q40 -32 40 -83q0 -66 -58 -108q-47 -34 -119 -34q-71 0 -162 36l24 55q67 -30 127 -30q46 0 75 26q19 18 19 46q0 27 -20 45q-25 23 -62 23q-31 0 -76 -16l-28 28l72 109q-210 16 -301 150q-51 81 -49 186h123q17 -230 284 -230
q111 0 172 48q70 55 70 146q0 54 -33 87q-36 36 -151 66q-33 8 -178 40q-140 30 -200 93q-61 65 -61 167q0 145 111 219q97 65 248 65q226 0 317 -140q40 -62 52 -168h-121q-13 70 -34 104q-56 92 -222 92q-106 0 -167 -43q-61 -42 -61 -116q0 -89 77 -125q45 -21 207 -59
q127 -29 169 -45q170 -65 170 -230q0 -117 -77 -201q-90 -96 -279 -107z" />
    <glyph glyph-name="Scaron" unicode="&#x160;" horiz-adv-x="1058" vert-adv-y="1549" 
d="M19 453h132q11 -158 79 -241q100 -121 314 -121q156 0 254 69q104 74 104 213q0 123 -94 179q-56 34 -123 52q-95 25 -213 49q-194 40 -268 82q-71 42 -109 112q-41 76 -41 170q0 122 70 216q119 160 402 160t405 -164q64 -87 80 -240h-137q-2 59 -11 90q-25 92 -123 150
q-81 47 -215 47q-156 0 -247 -70q-89 -70 -89 -188q0 -97 64 -152q64 -56 268 -95q205 -39 283 -68q231 -90 231 -314q0 -138 -85 -246q-133 -170 -409 -170q-306 0 -440 191q-79 111 -82 289zM255 1704h129l149 -174l139 174h131l-201 -248h-144z" />
    <glyph glyph-name="scaron" unicode="&#x161;" horiz-adv-x="814" vert-adv-y="1549" 
d="M19 310h123q17 -230 284 -230q111 0 172 48q70 55 70 146q0 54 -33 87q-36 36 -151 66q-33 9 -178 40q-140 31 -200 94q-61 64 -61 166q0 145 111 219q97 65 248 65q226 0 317 -140q40 -62 52 -168h-121q-13 70 -34 104q-56 92 -222 92q-106 0 -167 -43q-61 -42 -61 -116
q0 -89 77 -125q45 -21 207 -59q126 -29 169 -45q170 -65 170 -229q0 -155 -122 -240q-98 -69 -258 -69q-190 0 -292 93q-100 91 -100 244zM133 1343h129l149 -175l139 175h131l-201 -249h-144z" />
    <glyph glyph-name="Zcaron" unicode="&#x17d;" horiz-adv-x="1085" vert-adv-y="1549" 
d="M1066 0h-1052v82l880 1166h-806v117h960v-115l-853 -1132h871v-118zM268 1704h129l149 -174l139 174h131l-201 -248h-144z" />
    <glyph glyph-name="zcaron" unicode="&#x17e;" horiz-adv-x="811" vert-adv-y="1549" 
d="M796 0h-782v89l603 783h-559v111h714v-85l-600 -787h624v-111zM131 1343h129l149 -175l139 175h131l-201 -249h-144z" />
    <glyph glyph-name="franc" unicode="&#x20a3;" horiz-adv-x="1104" vert-adv-y="1549" 
d="M135 0v1365h717v-117h-592v-494h361v-109h-361v-645h-125zM663 0v847h119v-164q37 65 75 102q77 77 202 77q20 0 48 -4v-120q-28 3 -42 3q-100 0 -178 -77q-78 -76 -98 -204q-7 -45 -7 -135v-325h-119z" />
    <glyph glyph-name="minus" unicode="&#x2212;" horiz-adv-x="976" vert-adv-y="1549" 
d="M134 737h709v-109h-709v109z" />
    <glyph glyph-name="glyph261" vert-adv-y="1549" 
d="M443 1479v174h139v-174h-139z" />
    <glyph glyph-name="glyph262" vert-adv-y="1549" 
d="M254 1479v174h139v-174h-139zM632 1479v174h139v-174h-139z" />
    <glyph glyph-name="glyph263" vert-adv-y="1549" 
d="M238 1704h129l149 -174l139 174h131l-201 -248h-144z" />
    <glyph glyph-name="glyph264" vert-adv-y="1549" 
d="M789 1689q-13 -83 -49 -135q-75 -110 -231 -110q-153 0 -229 109q-39 56 -44 136h82q32 -151 194 -151q126 0 172 86q14 25 23 65h82z" />
    <glyph glyph-name="glyph265" vert-adv-y="1549" 
d="M332 1479v174h125v-174h-125zM567 1479v174h125v-174h-125z" />
    <glyph glyph-name="glyph266" vert-adv-y="1549" 
d="M814 1649q-35 -185 -165 -185q-43 0 -101 23q-17 7 -101 48q-36 17 -73 17q-67 0 -92 -96h-72q15 87 56 133q48 53 118 53q54 0 128 -37q59 -29 79 -38q27 -12 57 -12q68 0 92 94h74z" />
    <glyph glyph-name="glyph267" vert-adv-y="1549" 
d="M238 1456l203 248h144l201 -248h-131l-139 174l-149 -174h-129z" />
    <glyph glyph-name="glyph268" vert-adv-y="1549" 
d="M568 1454h-99l-205 252h164z" />
    <glyph glyph-name="glyph269" vert-adv-y="1549" 
d="M456 1454l140 252h164l-206 -252h-98z" />
    <glyph glyph-name="glyph270" vert-adv-y="1549" 
d="M514 1785q68 0 117 -48q52 -50 52 -123q0 -71 -50 -121t-121 -50t-121 50t-50 121q0 74 52 123q50 48 121 48zM511 1710q-38 0 -66 -27q-29 -28 -29 -69q0 -39 28 -68q29 -28 68 -28q40 0 68 28q28 29 28 68q0 41 -29 69q-28 27 -68 27z" />
    <glyph glyph-name="a" unicode="&#x20ac;" horiz-adv-x="1446" vert-adv-y="1549" 
d="M14 742l49 120h169q45 161 149 284t247 188q140 64 298 64q284 0 506 -213l-51 -122q-185 215 -457 215q-257 0 -436 -191q-91 -97 -131 -225h780h159l-49 -120h-915q-2 -37 -2 -58t2 -60h866l-50 -120h-791q28 -94 95 -183q77 -101 189 -161q132 -72 282 -72
q275 0 458 215v-170q-213 -166 -455 -166q-223 0 -406 126q-215 148 -288 411h-216l49 120h146q-2 40 -2 61q0 24 2 57h-197z" />
    <glyph glyph-name="glyph272" horiz-adv-x="356" vert-adv-y="1549" 
 />
    </font>
</defs>
</svg>
